# Blender v3.1.2 OBJ File: ''
# www.blender.org
mtllib 9.mtl
o Plane.004_Plane.005
v 0.028505 0.320142 0.000000
v -0.204019 0.142647 0.000000
v -0.153410 0.126745 -0.053805
v 0.017557 0.262866 -0.053805
v 0.054877 -0.217649 0.000000
v 0.177544 -0.058939 0.000000
v 0.103154 -0.041781 -0.053805
v 0.027849 -0.176199 -0.053805
v 0.198760 0.031021 0.000000
v 0.143081 0.027350 -0.053805
v -0.156552 -0.062210 0.000000
v -0.127774 -0.015016 -0.053805
v 0.077465 -0.018484 0.000000
v 0.077465 0.016521 -0.053805
v 0.090620 0.058297 0.000000
v -0.097531 0.026439 0.000000
v -0.107994 0.112986 0.000000
v 0.011008 0.221698 0.000000
v 0.002158 -0.142375 0.000000
v -0.078007 -0.189621 0.000000
v -0.078007 -0.217649 0.000000
v -0.047339 -0.203636 -0.053805
v 0.017557 0.262866 0.053804
v -0.153410 0.126745 0.053804
v 0.027849 -0.176199 0.053804
v 0.103154 -0.041781 0.053804
v 0.143081 0.027350 0.053804
v -0.127774 -0.015016 0.053804
v 0.077465 0.016521 0.053804
v -0.047339 -0.203636 0.053804
vt 0.484590 0.633581
vt 0.098655 0.587130
vt 0.145882 0.534795
vt 0.433434 0.575379
vt 0.152159 0.000000
vt 0.399636 0.099017
vt 0.326025 0.168825
vt 0.149160 0.065687
vt 0.484590 0.187721
vt 0.418358 0.221061
vt 0.014873 0.320551
vt 0.079648 0.355186
vt 0.312319 0.212823
vt 0.335923 0.252906
vt 0.379155 0.291871
vt 0.142231 0.382261
vt 0.188607 0.488417
vt 0.398175 0.532656
vt 0.142549 0.121740
vt 0.018899 0.121696
vt 0.000000 0.089603
vt 0.044565 0.084969
vt 0.828310 0.000000
vt 0.899567 0.076235
vt 0.831553 0.350536
vt 0.733086 0.364531
vt 0.585811 0.049249
vt 0.666984 0.101826
vt 0.614558 0.299327
vt 0.492648 0.294952
vt 0.586485 0.401346
vt 0.484590 0.416317
vt 0.733086 0.651971
vt 0.679527 0.717993
vt 0.899567 0.490555
vt 0.838476 0.559422
vt 0.336020 0.650731
vt 0.335378 0.869882
vt 0.259854 0.887817
vt 0.251753 0.633581
vt 0.336020 0.940364
vt 0.251753 0.971892
vt 0.167142 0.943092
vt 0.164384 0.736696
vt 0.251753 0.749021
vt 0.809466 0.559422
vt 0.874306 0.609234
vt 0.827362 0.809008
vt 0.733086 0.822608
vt 0.251055 0.677241
vt 0.874306 0.905560
vt 0.816787 0.975710
vt 0.000000 0.699098
vt 0.012572 0.633581
vt 0.913960 1.000000
vt 0.900942 0.895001
vt 0.985921 0.894578
vt 0.874306 0.692724
vt 0.964727 0.703378
vt 0.985921 0.588919
vt 0.902907 0.603131
vt 0.971431 0.559422
vt 0.708885 0.000000
vt 0.733086 0.039344
vn 0.4879 -0.6277 0.6066
vn -0.5614 0.3792 0.7356
vn -0.6055 0.2327 0.7611
vn -0.6744 -0.3802 0.6329
vn 0.7708 0.1626 0.6159
vn -0.1379 0.8045 0.5777
vn -0.1370 0.8303 0.5402
vn 0.1304 -0.8090 0.5732
vn -0.5476 0.6485 0.5288
vn 0.1318 -0.7983 0.5876
vn -0.7960 -0.1259 0.5921
vn 0.7854 0.4039 0.4691
vn 0.7327 -0.4232 0.5330
vn 0.7144 -0.4166 0.5622
vn 0.8688 0.0000 0.4952
vn 0.3670 -0.7634 0.5316
vn -0.1166 0.8844 0.4519
vn 0.0000 -0.0000 1.0000
vn 0.4879 -0.6277 -0.6067
vn -0.5614 0.3791 -0.7356
vn -0.6055 0.2327 -0.7611
vn -0.6744 -0.3802 -0.6329
vn 0.7708 0.1626 -0.6159
vn -0.1378 0.8045 -0.5777
vn -0.1370 0.8303 -0.5402
vn 0.1304 -0.8090 -0.5732
vn -0.5476 0.6485 -0.5288
vn 0.1318 -0.7983 -0.5876
vn -0.7960 -0.1259 -0.5921
vn 0.7854 0.4039 -0.4691
vn 0.7327 -0.4232 -0.5330
vn 0.7144 -0.4166 -0.5622
vn 0.8688 0.0000 -0.4952
vn 0.3670 -0.7634 -0.5316
vn -0.1166 0.8844 -0.4519
usemtl TT_checker_512x512_UV_GRID.013
s 1
f 1/1/1 2/2/1 3/3/1 4/4/1
f 5/5/2 6/6/2 7/7/2 8/8/2
f 6/6/3 9/9/3 10/10/3 7/7/3
f 9/9/4 1/1/4 4/4/4 10/10/4
f 2/2/5 11/11/5 12/12/5 3/3/5
f 12/12/6 11/11/6 13/13/6 14/14/6
f 14/14/7 13/13/7 10/10/7
f 12/12/8 14/14/8 15/15/8 16/16/8
f 4/4/9 3/3/9 17/17/9 18/18/9
f 14/14/10 10/10/10 15/15/10
f 3/3/11 12/12/11 16/16/11 17/17/11
f 10/10/12 4/4/12 18/18/12 15/15/12
f 10/10/13 13/13/13 7/7/13
f 7/7/14 13/13/14 19/19/14 8/8/14
f 20/20/15 21/21/15 22/22/15
f 20/20/16 22/22/16 8/8/16 19/19/16
f 21/21/17 5/5/17 8/8/17 22/22/17
f 16/16/18 15/15/18 18/18/18 17/17/18
f 1/23/19 23/24/19 24/25/19 2/26/19
f 5/27/20 25/28/20 26/29/20 6/30/20
f 6/30/21 26/29/21 27/31/21 9/32/21
f 9/32/22 27/31/22 23/33/22 1/34/22
f 2/26/23 24/25/23 28/35/23 11/36/23
f 28/37/24 29/38/24 13/39/24 11/40/24
f 29/38/25 27/41/25 13/39/25
f 28/42/26 16/43/26 15/44/26 29/45/26
f 23/46/27 18/47/27 17/48/27 24/49/27
f 29/45/28 15/44/28 27/50/28
f 24/49/29 17/48/29 16/51/29 28/52/29
f 27/50/30 15/44/30 18/53/30 23/54/30
f 27/55/31 26/56/31 13/57/31
f 26/56/32 25/58/32 19/59/32 13/57/32
f 20/60/33 30/61/33 21/62/33
f 20/60/34 19/59/34 25/58/34 30/61/34
f 21/63/35 30/64/35 25/28/35 5/27/35
