# Blender v3.1.2 OBJ File: 'NumbersPuzzels.blend'
# www.blender.org
mtllib Front buttons.mtl
o Cylinder
v -0.095229 0.953298 0.553385
v -0.096043 0.945970 0.619092
v 0.077346 0.882544 0.553549
v 0.072874 0.877332 0.619250
v 0.167697 0.440212 0.555303
v 0.160838 0.444355 0.620975
v -0.310497 0.373591 0.660661
v -0.358964 0.346969 0.621310
v -0.464458 0.506605 0.554969
v -0.456855 0.509152 0.620641
v -0.303105 0.907476 0.553611
v -0.299362 0.901726 0.619311
v 0.173985 0.695283 0.554119
v 0.167448 0.694312 0.619807
v -0.445434 0.747889 0.554181
v -0.438595 0.745782 0.619868
v -0.100450 0.900758 0.659643
v 0.053609 0.835418 0.659796
v 0.115250 0.468829 0.661257
v -0.365914 0.341858 0.555645
v -0.406798 0.523939 0.660977
v -0.283669 0.860205 0.659843
v 0.131057 0.677793 0.660277
v -0.400968 0.725136 0.660324
v -0.106307 0.826756 0.699890
v 0.038258 0.745803 0.699885
v 0.031205 0.511491 0.700705
v -0.151305 0.426747 0.697388
v -0.314639 0.550554 0.700915
v -0.271881 0.779012 0.700160
v 0.077133 0.629834 0.700192
v -0.345689 0.676113 0.700521
v -0.111165 0.781621 0.713995
v -0.028614 0.717178 0.714279
v -0.048818 0.543111 0.714850
v -0.143933 0.499308 0.714921
v -0.229574 0.564092 0.715648
v -0.209369 0.738159 0.715078
v -0.015557 0.627457 0.714369
v -0.251625 0.654857 0.715328
v 0.043690 0.306795 0.557031
v 0.038553 0.313309 0.622696
v -0.003963 0.348584 0.661836
v -0.165694 0.277472 0.622361
v -0.161716 0.313455 0.660654
v -0.168104 0.267457 0.556705
v -0.000941 0.932503 0.553417
v -0.003766 0.925845 0.619122
v -0.095320 0.952470 0.588915
v 0.076798 0.881981 0.589078
v 0.185146 0.562987 0.554587
v 0.131119 0.800400 0.619477
v 0.166850 0.440818 0.590829
v -0.429503 0.411861 0.555285
v -0.421941 0.415496 0.620953
v -0.367863 0.438782 0.661142
v -0.463497 0.507012 0.590495
v -0.387692 0.842475 0.553854
v -0.463166 0.627557 0.620260
v -0.302627 0.906846 0.589140
v -0.200647 0.944637 0.553453
v -0.199159 0.937717 0.619157
v 0.136858 0.803738 0.553782
v 0.178310 0.564824 0.620266
v 0.173178 0.695250 0.589646
v -0.470592 0.627125 0.554582
v -0.382103 0.838301 0.619547
v -0.444569 0.747714 0.589709
v -0.015571 0.880707 0.659676
v 0.102908 0.767720 0.659997
v -0.418504 0.625560 0.660653
v -0.194369 0.893209 0.659702
v 0.136705 0.570094 0.660661
v -0.354716 0.804293 0.660050
v 0.153062 0.690525 0.641448
v 0.063725 0.864011 0.640920
v -0.423663 0.739776 0.641505
v -0.439224 0.514556 0.642240
v -0.097847 0.929061 0.640771
v 0.144821 0.453362 0.642568
v -0.343134 0.355910 0.642780
v -0.291817 0.887647 0.640977
v -0.023711 0.798023 0.699846
v 0.069797 0.688828 0.700011
v -0.038396 0.463804 0.700838
v -0.254125 0.487464 0.700846
v -0.344114 0.614865 0.700718
v -0.194934 0.816294 0.700004
v 0.066885 0.568905 0.700407
v -0.322271 0.731123 0.700334
v -0.359994 0.537044 0.682181
v -0.364827 0.343182 0.591168
v 0.104162 0.653089 0.681592
v 0.046390 0.789677 0.681178
v 0.072483 0.490097 0.682316
v -0.373410 0.700074 0.681659
v -0.103403 0.863134 0.681023
v -0.278192 0.818932 0.681238
v -0.064529 0.759020 0.714400
v -0.014774 0.672068 0.714249
v -0.093362 0.510611 0.715215
v -0.191020 0.521947 0.715657
v -0.249035 0.609855 0.715477
v -0.162186 0.770355 0.714843
v -0.025013 0.583852 0.714538
v -0.238796 0.698070 0.715187
v -0.256211 0.754363 0.710876
v -0.315614 0.663603 0.711187
v -0.108921 0.800481 0.710421
v -0.280732 0.560588 0.711512
v -0.146174 0.478198 0.711293
v 0.047819 0.621768 0.710307
v 0.020366 0.722609 0.710142
v 0.000307 0.528102 0.710787
v -0.119550 0.723053 0.715836
v -0.133481 0.641131 0.715993
v -0.138685 0.558197 0.716377
v 0.043266 0.308294 0.592554
v 0.024879 0.325435 0.644141
v 0.064609 0.396442 0.661974
v 0.113390 0.362802 0.621948
v 0.120025 0.357530 0.556280
v -0.079392 0.318677 0.660674
v -0.058400 0.283723 0.622766
v -0.056772 0.274881 0.557107
v -0.270084 0.299714 0.621813
v -0.242137 0.330049 0.659839
v -0.253379 0.400044 0.679874
v -0.275406 0.291679 0.556153
v -0.164100 0.289571 0.643698
v -0.166963 0.271183 0.592223
v -0.055582 0.383466 0.680580
v -0.157970 0.355200 0.677963
v -0.001283 0.931759 0.588947
v 0.184301 0.563305 0.590114
v -0.469654 0.627267 0.590108
v -0.386984 0.842042 0.589382
v -0.200450 0.943861 0.588982
v 0.136151 0.803409 0.589310
v 0.118955 0.791043 0.641136
v -0.446474 0.627689 0.641877
v -0.009510 0.909950 0.640799
v 0.162826 0.567972 0.641885
v -0.196360 0.921508 0.640832
v -0.370326 0.827524 0.641201
v -0.428521 0.412479 0.590810
v -0.403948 0.423371 0.642530
v 0.086689 0.727333 0.681359
v 0.101567 0.569181 0.681887
v -0.381090 0.619936 0.681921
v -0.019351 0.838591 0.681058
v -0.338810 0.767023 0.681429
v -0.194951 0.854136 0.681092
v -0.298383 0.710754 0.711029
v -0.188457 0.790238 0.710695
v -0.223403 0.508741 0.711572
v 0.045357 0.671257 0.710167
v 0.035387 0.573511 0.710488
v -0.310719 0.613466 0.711348
v -0.064449 0.490438 0.711166
v -0.034366 0.772553 0.710273
v -0.126907 0.683485 0.715868
v -0.114919 0.752536 0.715730
v -0.136783 0.598398 0.716147
v -0.140931 0.528441 0.716465
v -0.098084 0.349024 0.674667
v 0.097230 0.374427 0.643505
v 0.119232 0.358352 0.591805
v -0.218226 0.357448 0.674053
v -0.260429 0.310151 0.643117
v -0.274134 0.294486 0.591673
v -0.065287 0.295948 0.644055
v -0.056369 0.277789 0.592627
v -0.311275 0.462385 0.682124
v 0.013226 0.429413 0.682602
vt 0.887175 0.510414
vt 0.887455 0.403192
vt 0.947857 0.398648
vt 0.947737 0.505854
vt 0.886769 0.311348
vt 0.946059 0.306919
vt 0.992578 0.298613
vt 0.995222 0.390135
vt 0.995222 0.497311
vt 0.217479 0.000000
vt 0.217854 0.107723
vt 0.129748 0.109259
vt 0.129138 0.001539
vt 0.218064 0.199831
vt 0.131604 0.201348
vt 0.053860 0.207155
vt 0.050671 0.115107
vt 0.049871 0.007393
vt 0.569777 0.000000
vt 0.570380 0.107053
vt 0.490126 0.108047
vt 0.489348 0.001001
vt 0.569995 0.198824
vt 0.490964 0.199765
vt 0.413625 0.205347
vt 0.411336 0.113741
vt 0.410352 0.006712
vt 0.351564 0.123906
vt 0.350416 0.016904
vt 0.354999 0.215318
vt 0.685157 0.391871
vt 0.688413 0.300338
vt 0.748550 0.308220
vt 0.746481 0.399927
vt 0.684314 0.499049
vt 0.745808 0.507130
vt 0.817207 0.403650
vt 0.816733 0.510870
vt 0.817884 0.311826
vt 0.350416 0.008492
vt 0.350416 0.116193
vt 0.292802 0.110192
vt 0.292632 0.002476
vt 0.348003 0.208147
vt 0.291578 0.202254
vt 0.286788 0.269534
vt 0.217165 0.267279
vt 0.340304 0.275121
vt 0.322602 0.333935
vt 0.273140 0.329003
vt 0.211083 0.327292
vt 0.492228 0.267343
vt 0.418880 0.272562
vt 0.567802 0.266628
vt 0.563652 0.328162
vt 0.495503 0.328023
vt 0.430203 0.332250
vt 0.941150 0.239511
vt 0.985639 0.231635
vt 0.884379 0.243729
vt 0.880452 0.183038
vt 0.934856 0.178740
vt 0.976720 0.171024
vt 0.135385 0.268786
vt 0.061558 0.274516
vt 0.139502 0.328993
vt 0.074813 0.334745
vt 0.818597 0.244233
vt 0.752583 0.240859
vt 0.755839 0.180120
vt 0.817708 0.183468
vt 0.695527 0.233389
vt 0.363265 0.281983
vt 0.379938 0.340468
vt 0.704077 0.173140
vt 0.635002 0.110871
vt 0.634031 0.202647
vt 0.634538 0.003811
vt 0.684314 0.012727
vt 0.684314 0.119816
vt 0.682795 0.211499
vt 0.630214 0.270501
vt 0.622240 0.332369
vt 0.678157 0.278734
vt 0.668482 0.337937
vt 0.248277 0.396270
vt 0.197606 0.395602
vt 0.293328 0.400168
vt 0.265353 0.458395
vt 0.224697 0.455393
vt 0.185073 0.455693
vt 0.142520 0.397817
vt 0.093203 0.403782
vt 0.145890 0.458378
vt 0.111508 0.464539
vt 0.501641 0.397544
vt 0.448760 0.399978
vt 0.557817 0.399393
vt 0.551582 0.462983
vt 0.507331 0.459578
vt 0.466535 0.460318
vt 0.928997 0.108628
vt 0.968276 0.100482
vt 0.875524 0.113527
vt 0.870707 0.051761
vt 0.922856 0.046557
vt 0.332007 0.407677
vt 0.305843 0.465626
vt 0.711648 0.103353
vt 0.756172 0.109920
vt 0.406017 0.406249
vt 0.431160 0.464717
vt 0.719727 0.041200
vt 0.757145 0.047348
vt 0.814224 0.113690
vt 0.811213 0.051540
vt 0.733901 0.005778
vt 0.765518 0.011425
vt 0.476630 0.496649
vt 0.446163 0.499994
vt 0.555125 0.696566
vt 0.533445 0.722065
vt 0.507402 0.687979
vt 0.528245 0.666328
vt 0.566548 0.657769
vt 0.541819 0.636080
vt 0.813387 0.015660
vt 0.866849 0.016492
vt 0.565075 0.606678
vt 0.544974 0.598126
vt 0.829102 0.000000
vt 0.863792 0.003197
vt 0.596597 0.470320
vt 0.584268 0.507795
vt 0.546886 0.500263
vt 0.076098 0.964731
vt 0.142644 0.946764
vt 0.147451 0.995410
vt 0.097023 1.000000
vt 0.413307 0.719516
vt 0.370192 0.684762
vt 0.381761 0.676650
vt 0.410388 0.696539
vt 0.462230 0.735715
vt 0.447510 0.705041
vt 0.215585 0.489505
vt 0.182705 0.490195
vt 0.251893 0.492038
vt 0.419170 0.510186
vt 0.457172 0.507795
vt 0.470199 0.538129
vt 0.439482 0.544933
vt 0.389658 0.525032
vt 0.413867 0.560057
vt 0.152092 0.492907
vt 0.125570 0.498853
vt 0.365759 0.548112
vt 0.391688 0.579881
vt 0.350961 0.583394
vt 0.375890 0.607090
vt 0.510208 0.496586
vt 0.502757 0.735715
vt 0.480450 0.701276
vt 0.218970 0.961820
vt 0.202274 0.996531
vt 0.266884 0.967269
vt 0.246638 1.000000
vt 0.350416 0.633341
vt 0.371693 0.643618
vt 0.290178 0.498881
vt 0.913751 0.011849
vt 0.504140 0.523120
vt 0.544857 0.557178
vt 0.534717 0.564805
vt 0.506280 0.545205
vt 0.503535 0.588987
vt 0.483004 0.606262
vt 0.460603 0.624003
vt 0.519111 0.576605
vt 0.436905 0.639971
vt 0.414217 0.654298
vt 0.397698 0.665386
vt 0.238953 0.828941
vt 0.205324 0.890286
vt 0.176019 0.868054
vt 0.187770 0.821729
vt 0.136275 0.878842
vt 0.132782 0.821022
vt 0.014150 0.284395
vt 0.004712 0.217158
vt 0.032020 0.344275
vt 0.307577 0.776302
vt 0.286182 0.835235
vt 0.257778 0.772224
vt 0.318419 0.709244
vt 0.266946 0.705445
vt 0.000937 0.125151
vt 0.000000 0.017448
vt 0.322810 0.616920
vt 0.270567 0.613057
vt 0.324075 0.508655
vt 0.271564 0.504713
vt 0.096309 0.867211
vt 0.079793 0.820569
vt 0.074175 0.890157
vt 0.035686 0.828409
vt 0.003385 0.705324
vt 0.061005 0.701066
vt 0.067320 0.767213
vt 0.013757 0.771795
vt 0.129774 0.700015
vt 0.130774 0.766464
vt 0.000000 0.504763
vt 0.058609 0.500164
vt 0.058785 0.608658
vt 0.000004 0.613085
vt 0.129251 0.498881
vt 0.129370 0.607482
vt 0.196773 0.768342
vt 0.201415 0.702022
vt 0.203220 0.609528
vt 0.203619 0.501022
vt 0.654254 0.405083
vt 0.609921 0.404682
vt 0.037622 0.904647
vt 0.252606 0.902081
vt 0.294062 0.908657
vt 0.058966 0.412976
vn 0.0676 0.9974 0.0230
vn 0.0674 0.9910 0.1153
vn 0.3792 0.9182 0.1143
vn 0.3822 0.9238 0.0229
vn 0.0619 0.9081 0.4142
vn 0.3451 0.8434 0.4117
vn 0.6184 0.6772 0.3987
vn 0.6736 0.7309 0.1100
vn 0.6783 0.7345 0.0223
vn 0.9784 0.2055 0.0225
vn 0.9732 0.2045 0.1056
vn 0.9934 -0.0295 0.1110
vn 0.9993 -0.0287 0.0243
vn 0.9045 0.1918 0.3809
vn 0.9170 -0.0276 0.3980
vn 0.8512 -0.2956 0.4336
vn 0.9374 -0.3254 0.1239
vn 0.9450 -0.3259 0.0282
vn -0.9791 -0.2011 0.0292
vn -0.9715 -0.2005 0.1262
vn -0.9901 0.0759 0.1181
vn -0.9967 0.0769 0.0262
vn -0.8792 -0.1829 0.4400
vn -0.9066 0.0692 0.4164
vn -0.8507 0.3383 0.4023
vn -0.9239 0.3654 0.1136
vn -0.9296 0.3677 0.0245
vn -0.7395 0.6640 0.1108
vn -0.7438 0.6680 0.0231
vn -0.6808 0.6149 0.3980
vn -0.4380 0.8056 0.3990
vn -0.4776 0.8717 0.1097
vn -0.4807 0.8766 0.0222
vn -0.2110 0.9710 0.1123
vn -0.2130 0.9768 0.0224
vn -0.1916 0.8933 0.4067
vn 0.8777 0.4673 0.1061
vn 0.8828 0.4692 0.0220
vn 0.8132 0.4369 0.3845
vn 0.6368 0.3442 0.6900
vn 0.7168 0.1531 0.6803
vn 0.4706 0.5187 0.7138
vn 0.3677 0.3842 0.8469
vn 0.5136 0.2595 0.8178
vn 0.5850 0.1085 0.8038
vn -0.6838 0.0502 0.7279
vn -0.6551 0.2628 0.7084
vn -0.6300 -0.1357 0.7646
vn -0.4330 -0.1169 0.8938
vn -0.5199 0.0198 0.8540
vn -0.5166 0.1938 0.8340
vn 0.2577 0.6348 0.7284
vn 0.0467 0.6836 0.7284
vn 0.0387 0.5140 0.8569
vn 0.2018 0.4690 0.8598
vn 0.7066 -0.0222 0.7072
vn 0.6164 -0.2139 0.7578
vn 0.5453 -0.0368 0.8374
vn 0.4220 -0.1704 0.8904
vn -0.1431 0.6778 0.7212
vn -0.3306 0.6165 0.7146
vn -0.2564 0.4605 0.8498
vn -0.1124 0.5107 0.8524
vn -0.5204 0.4758 0.7091
vn -0.4060 0.3569 0.8413
vn -0.8471 -0.5148 0.1320
vn -0.7644 -0.4647 0.4469
vn -0.8537 -0.5195 0.0359
vn -0.6169 -0.7852 0.0540
vn -0.6126 -0.7788 0.1350
vn -0.5625 -0.7129 0.4187
vn -0.5308 -0.3289 0.7811
vn -0.3319 -0.2230 0.9166
vn -0.4055 -0.5200 0.7518
vn -0.2566 -0.3260 0.9099
vn 0.4987 0.2112 0.8406
vn 0.5556 0.0601 0.8293
vn 0.3574 0.3313 0.8732
vn 0.3299 0.2600 0.9075
vn 0.4321 0.1329 0.8920
vn 0.4448 -0.0009 0.8956
vn 0.4869 -0.0811 0.8697
vn 0.3400 -0.1945 0.9201
vn 0.3789 -0.1176 0.9179
vn 0.2579 -0.2132 0.9424
vn -0.4690 -0.0250 0.8828
vn -0.4858 0.1471 0.8616
vn -0.3601 -0.1477 0.9211
vn -0.2913 -0.1753 0.9404
vn -0.3818 -0.0686 0.9217
vn -0.4069 0.0818 0.9098
vn 0.2033 0.4118 0.8883
vn 0.0415 0.4610 0.8865
vn 0.0433 0.4065 0.9126
vn 0.2019 0.3501 0.9147
vn -0.3870 0.3060 0.8698
vn -0.2490 0.4042 0.8801
vn -0.3417 0.2313 0.9109
vn -0.2340 0.3343 0.9130
vn -0.1141 0.4563 0.8825
vn -0.1161 0.3964 0.9107
vn -0.1816 0.1170 0.9764
vn -0.1389 0.1879 0.9723
vn -0.2073 0.0299 0.9778
vn -0.0381 0.0078 0.9992
vn -0.0374 0.0258 0.9990
vn -0.0371 0.0525 0.9979
vn -0.0806 0.2520 0.9644
vn 0.0338 0.2822 0.9588
vn -0.0219 0.0975 0.9950
vn 0.0183 0.1289 0.9915
vn -0.1807 -0.2302 0.9562
vn -0.1187 -0.1842 0.9757
vn -0.1660 -0.1243 0.9783
vn -0.0273 -0.2571 0.9660
vn -0.0247 -0.2288 0.9732
vn -0.0106 -0.1197 0.9928
vn -0.0420 -0.0812 0.9958
vn -0.0469 -0.0354 0.9983
vn 0.2145 0.0537 0.9753
vn 0.2097 -0.0152 0.9776
vn 0.1871 0.1346 0.9731
vn 0.0529 0.0359 0.9980
vn 0.0454 0.0105 0.9989
vn 0.0412 -0.0013 0.9992
vn 0.1867 -0.0798 0.9792
vn 0.1389 -0.1433 0.9799
vn 0.0423 -0.0136 0.9990
vn 0.0435 -0.0395 0.9983
vn -0.1996 -0.0568 0.9782
vn -0.0415 -0.0097 0.9991
vn 0.1275 -0.2596 0.9573
vn 0.0768 -0.1987 0.9770
vn 0.0292 -0.0855 0.9959
vn 0.1381 0.2159 0.9666
vn 0.0497 0.0850 0.9951
vn 0.0052 0.0068 1.0000
vn 0.0044 0.0030 1.0000
vn 0.0042 0.0028 1.0000
vn 0.0083 0.0308 0.9995
vn 0.0044 0.0025 1.0000
vn 0.0043 -0.0013 1.0000
vn 0.0017 -0.0254 0.9997
vn 0.1830 -0.3751 0.9087
vn 0.1092 -0.2846 0.9524
vn 0.0581 -0.3255 0.9438
vn 0.0882 -0.4603 0.8834
vn -0.0280 -0.3166 0.9482
vn -0.0390 -0.4920 0.8697
vn 0.4540 -0.4277 0.7816
vn 0.6540 -0.6095 0.4482
vn 0.2811 -0.2844 0.9166
vn 0.2857 -0.5925 0.7532
vn 0.3949 -0.8174 0.4195
vn 0.7236 -0.6775 0.1320
vn 0.7290 -0.6836 0.0342
vn 0.4274 -0.8945 0.1312
vn 0.4286 -0.9022 0.0484
vn -0.1160 -0.3080 0.9443
vn -0.1669 -0.4372 0.8838
vn -0.1650 -0.2518 0.9536
vn -0.3257 -0.8688 0.3731
vn -0.2515 -0.6732 0.6954
vn -0.0722 -0.9332 0.3520
vn -0.0574 -0.7437 0.6661
vn -0.3514 -0.9326 0.0825
vn -0.3472 -0.9267 0.1434
vn -0.0799 -0.9923 0.0950
vn -0.0767 -0.9860 0.1480
vn 0.1317 -0.7045 0.6973
vn 0.1695 -0.9121 0.3732
vn 0.1795 -0.9739 0.1385
vn 0.1791 -0.9809 0.0762
vn -0.2431 -0.2132 0.9463
vn 0.1952 -0.2584 0.9461
usemtl TT_checker_512x512_UV_GRID.001
s 1
f 1/1/1 49/2/2 134/3/3 47/4/4
f 49/2/2 2/5/5 48/6/6 134/3/3
f 134/3/3 48/6/6 4/7/7 50/8/8
f 47/4/4 134/3/3 50/8/8 3/9/9
f 13/10/10 65/11/11 135/12/12 51/13/13
f 65/11/11 14/14/14 64/15/15 135/12/12
f 135/12/12 64/15/15 6/16/16 53/17/17
f 51/13/13 135/12/12 53/17/17 5/18/18
f 9/19/19 57/20/20 136/21/21 66/22/22
f 57/20/20 10/23/23 59/24/24 136/21/21
f 136/21/21 59/24/24 16/25/25 68/26/26
f 66/22/22 136/21/21 68/26/26 15/27/27
f 15/27/27 68/26/26 137/28/28 58/29/29
f 68/26/26 16/25/25 67/30/30 137/28/28
f 137/31/28 67/32/30 12/33/31 60/34/32
f 58/35/29 137/31/28 60/34/32 11/36/33
f 11/36/33 60/34/32 138/37/34 61/38/35
f 60/34/32 12/33/31 62/39/36 138/37/34
f 138/37/34 62/39/36 2/5/5 49/2/2
f 61/38/35 138/37/34 49/2/2 1/1/1
f 3/40/9 50/41/8 139/42/37 63/43/38
f 50/41/8 4/44/7 52/45/39 139/42/37
f 139/42/37 52/45/39 14/14/14 65/11/11
f 63/43/38 139/42/37 65/11/11 13/10/10
f 14/14/14 52/45/39 140/46/40 75/47/41
f 52/45/39 4/44/7 76/48/42 140/46/40
f 140/46/40 76/48/42 18/49/43 70/50/44
f 75/47/41 140/46/40 70/50/44 23/51/45
f 16/25/25 59/24/24 141/52/46 77/53/47
f 59/24/24 10/23/23 78/54/48 141/52/46
f 141/52/46 78/54/48 21/55/49 71/56/50
f 77/53/47 141/52/46 71/56/50 24/57/51
f 4/7/7 48/6/6 142/58/52 76/59/42
f 48/6/6 2/5/5 79/60/53 142/58/52
f 142/58/52 79/60/53 17/61/54 69/62/55
f 76/59/42 142/58/52 69/62/55 18/63/43
f 6/16/16 64/15/15 143/64/56 80/65/57
f 64/15/15 14/14/14 75/47/41 143/64/56
f 143/64/56 75/47/41 23/51/45 73/66/58
f 80/65/57 143/64/56 73/66/58 19/67/59
f 2/5/5 62/39/36 144/68/60 79/60/53
f 62/39/36 12/33/31 82/69/61 144/68/60
f 144/68/60 82/69/61 22/70/62 72/71/63
f 79/60/53 144/68/60 72/71/63 17/61/54
f 12/33/31 67/32/30 145/72/64 82/69/61
f 67/30/30 16/25/25 77/53/47 145/73/64
f 145/73/64 77/53/47 24/57/51 74/74/65
f 82/69/61 145/72/64 74/75/65 22/70/62
f 10/23/23 57/20/20 146/76/66 55/77/67
f 57/20/20 9/19/19 54/78/68 146/76/66
f 146/76/66 54/78/68 20/79/69 92/80/70
f 55/77/67 146/76/66 92/80/70 8/81/71
f 21/55/49 78/54/48 147/82/72 56/83/73
f 78/54/48 10/23/23 55/77/67 147/82/72
f 147/82/72 55/77/67 8/81/71 81/84/74
f 56/83/73 147/82/72 81/84/74 7/85/75
f 23/51/45 70/50/44 148/86/76 93/87/77
f 70/50/44 18/49/43 94/88/78 148/86/76
f 148/86/76 94/88/78 26/89/79 84/90/80
f 93/87/77 148/86/76 84/90/80 31/91/81
f 19/67/59 73/66/58 149/92/82 95/93/83
f 73/66/58 23/51/45 93/87/77 149/92/82
f 149/92/82 93/87/77 31/91/81 89/94/84
f 95/93/83 149/92/82 89/94/84 27/95/85
f 24/57/51 71/56/50 150/96/86 96/97/87
f 71/56/50 21/55/49 91/98/88 150/96/86
f 150/96/86 91/98/88 29/99/89 87/100/90
f 96/97/87 150/96/86 87/100/90 32/101/91
f 18/63/43 69/62/55 151/102/92 94/103/78
f 69/62/55 17/61/54 97/104/93 151/102/92
f 151/102/92 97/104/93 25/105/94 83/106/95
f 94/88/78 151/107/92 83/108/95 26/89/79
f 22/70/62 74/75/65 152/109/96 98/110/97
f 74/74/65 24/57/51 96/97/87 152/111/96
f 152/111/96 96/97/87 32/101/91 90/112/98
f 98/110/97 152/109/96 90/113/98 30/114/99
f 17/61/54 72/71/63 153/115/100 97/104/93
f 72/71/63 22/70/62 98/110/97 153/115/100
f 153/115/100 98/110/97 30/114/99 88/116/101
f 97/104/93 153/115/100 88/116/101 25/105/94
f 30/114/99 90/113/98 154/117/102 107/118/103
f 90/112/98 32/101/91 108/119/104 154/120/102
f 154/121/102 108/122/104 40/123/105 106/124/106
f 107/125/103 154/121/102 106/124/106 38/126/107
f 25/105/94 88/116/101 155/127/108 109/128/109
f 88/116/101 30/114/99 107/118/103 155/127/108
f 155/129/108 107/125/103 38/126/107 104/130/110
f 109/128/109 155/127/108 104/131/110 33/132/111
f 29/99/89 86/133/112 156/134/113 110/135/114
f 86/136/112 28/137/115 111/138/116 156/139/113
f 156/140/113 111/141/116 36/142/117 102/143/118
f 110/144/114 156/140/113 102/143/118 37/145/119
f 31/91/81 84/90/80 157/146/120 112/147/121
f 84/90/80 26/89/79 113/148/122 157/146/120
f 157/149/120 113/150/122 34/151/123 100/152/124
f 112/153/121 157/149/120 100/152/124 39/154/125
f 27/95/85 89/94/84 158/155/126 114/156/127
f 89/94/84 31/91/81 112/147/121 158/155/126
f 158/157/126 112/153/121 39/154/125 105/158/128
f 114/159/127 158/157/126 105/158/128 35/160/129
f 32/101/91 87/100/90 159/161/130 108/119/104
f 87/100/90 29/99/89 110/135/114 159/161/130
f 159/162/130 110/144/114 37/145/119 103/163/131
f 108/122/104 159/162/130 103/163/131 40/123/105
f 28/137/115 85/164/132 160/165/133 111/138/116
f 85/164/132 27/166/85 114/167/127 160/165/133
f 160/168/133 114/159/127 35/160/129 101/169/134
f 111/141/116 160/168/133 101/169/134 36/142/117
f 26/89/79 83/108/95 161/170/135 113/148/122
f 83/106/95 25/105/94 109/128/109 161/171/135
f 161/172/135 109/173/109 33/174/111 99/175/136
f 113/150/122 161/172/135 99/175/136 34/151/123
f 34/151/123 115/176/137 162/177/138 100/152/124
f 115/176/137 38/126/107 106/124/106 162/177/138
f 162/177/138 106/124/106 40/123/105 116/178/139
f 100/152/124 162/177/138 116/178/139 39/154/125
f 38/126/107 115/176/137 163/179/140 104/130/110
f 34/151/123 99/175/136 163/179/140 115/176/137
f 33/174/111 104/130/110 163/179/140 99/175/136
f 39/154/125 116/178/139 164/180/141 105/158/128
f 116/178/139 40/123/105 103/163/131 164/180/141
f 164/180/141 103/163/131 37/145/119 117/181/142
f 105/158/128 164/180/141 117/181/142 35/160/129
f 35/160/129 117/181/142 165/182/143 101/169/134
f 37/145/119 102/143/118 165/182/143 117/181/142
f 36/142/117 101/169/134 165/182/143 102/143/118
f 43/183/144 132/184/145 166/185/146 123/186/147
f 28/137/115 133/187/148 166/185/146 132/184/145
f 45/188/149 123/186/147 166/185/146 133/187/148
f 6/16/16 80/65/57 167/189/150 121/190/151
f 80/65/57 19/67/59 120/191/152 167/189/150
f 167/192/150 120/193/152 43/183/144 119/194/153
f 121/195/151 167/192/150 119/194/153 42/196/154
f 5/18/18 53/17/17 168/197/155 122/198/156
f 53/17/17 6/16/16 121/190/151 168/197/155
f 168/199/155 121/195/151 42/196/154 118/200/157
f 122/201/156 168/199/155 118/200/157 41/202/158
f 45/188/149 133/187/148 169/203/159 127/204/160
f 28/137/115 128/205/161 169/203/159 133/187/148
f 7/206/75 127/204/160 169/203/159 128/205/161
f 8/207/71 126/208/162 170/209/163 81/210/74
f 126/208/162 44/211/164 130/212/165 170/209/163
f 170/209/163 130/212/165 45/188/149 127/204/160
f 81/210/74 170/209/163 127/204/160 7/206/75
f 20/213/69 129/214/166 171/215/167 92/216/70
f 129/214/166 46/217/168 131/218/169 171/215/167
f 171/215/167 131/218/169 44/211/164 126/208/162
f 92/216/70 171/215/167 126/208/162 8/207/71
f 45/188/149 130/212/165 172/219/170 123/186/147
f 130/212/165 44/211/164 124/220/171 172/219/170
f 172/219/170 124/220/171 42/196/154 119/194/153
f 123/186/147 172/219/170 119/194/153 43/183/144
f 44/211/164 131/218/169 173/221/172 124/220/171
f 131/218/169 46/217/168 125/222/173 173/221/172
f 173/221/172 125/222/173 41/202/158 118/200/157
f 124/220/171 173/221/172 118/200/157 42/196/154
f 7/85/75 128/223/161 174/224/174 56/83/73
f 128/205/161 28/137/115 86/136/112 174/225/174
f 174/224/174 86/133/112 29/99/89 91/98/88
f 56/83/73 174/224/174 91/98/88 21/55/49
f 27/166/85 85/164/132 175/226/175 95/227/83
f 85/164/132 28/137/115 132/184/145 175/226/175
f 175/226/175 132/184/145 43/183/144 120/193/152
f 95/93/83 175/228/175 120/191/152 19/67/59
