# Blender v3.1.2 OBJ File: 'NumbersPuzzels.blend'
# www.blender.org
mtllib minus.mtl
o Plane.002_Plane.002
v 3.895962 1.406133 0.734387
v 3.895962 1.441540 0.747312
v 3.641027 1.441540 0.747312
v 3.652309 1.406133 0.734387
v 3.641027 1.367299 0.747312
v 3.895962 1.367299 0.747312
v 3.895962 1.406133 0.760238
v 3.652309 1.406133 0.760238
v 4.150898 1.367299 0.747312
v 4.139616 1.406133 0.734387
v 4.150898 1.441540 0.747312
v 4.139616 1.406133 0.760238
vt 0.451109 0.970361
vt 0.552215 0.775977
vt 0.530511 -0.097054
vt 0.446631 -0.022918
vt 0.346892 -0.055815
vt 0.351060 0.970765
vt 0.451109 0.970361
vt 0.446631 -0.022918
vt 0.552215 0.775977
vt 0.530511 -0.097054
vt 0.446631 -0.022918
vt 0.346892 -0.055815
vt 0.351060 0.970765
vt 0.446631 -0.022918
vn 0.0000 -0.3429 0.9394
vn 0.0000 0.3158 0.9488
vn 0.7534 0.0000 0.6576
vn 0.0000 -0.3429 -0.9394
vn 0.0000 0.3158 -0.9488
vn 0.7534 0.0000 -0.6576
vn -0.0128 0.3334 0.9427
vn -0.0126 0.3332 0.9428
vn -0.0096 0.3352 0.9421
vn -0.0112 0.3340 0.9425
vn 0.0091 -0.3246 0.9458
vn 0.0113 -0.3261 0.9453
vn 0.0125 -0.3264 0.9452
vn 0.0121 -0.3265 0.9451
vn -0.7534 0.0000 0.6576
vn -0.0128 0.3334 -0.9427
vn -0.0112 0.3340 -0.9425
vn -0.0096 0.3352 -0.9421
vn -0.0126 0.3332 -0.9428
vn 0.0091 -0.3246 -0.9458
vn 0.0121 -0.3265 -0.9451
vn 0.0125 -0.3264 -0.9452
vn 0.0113 -0.3261 -0.9453
vn -0.7534 0.0000 -0.6576
usemtl TT_checker_512x512_UV_GRID.001
s off
f 1/1/1 2/2/1 3/3/1 4/4/1
f 4/4/2 5/5/2 6/6/2 1/1/2
f 4/4/3 3/3/3 5/5/3
f 7/7/4 8/8/4 3/3/4 2/2/4
f 8/8/5 7/7/5 6/6/5 5/5/5
f 8/8/6 5/5/6 3/3/6
f 1/1/7 6/9/8 9/10/9 10/11/10
f 10/11/11 11/12/12 2/13/13 1/1/14
f 10/11/15 9/10/15 11/12/15
f 7/7/16 12/14/17 9/10/18 6/9/19
f 12/14/20 7/7/21 2/13/22 11/12/23
f 12/14/24 11/12/24 9/10/24
