# Blender v3.1.2 OBJ File: 'NumbersPuzzels.blend'
# www.blender.org
mtllib More.mtl
o Plane.001
v 3.214946 1.441540 0.734387
v 3.214946 1.667586 0.734387
v 3.178474 1.667586 0.712425
v 3.178474 1.441540 0.712425
v 3.142001 1.667586 0.734387
v 3.142001 1.441540 0.734387
v 3.178474 1.667586 0.734387
v 3.178474 1.406275 0.712425
v 3.142001 1.367398 0.734387
v 3.142001 1.141352 0.734387
v 3.178474 1.141352 0.712425
v 3.178474 1.367398 0.712425
v 3.214946 1.141352 0.734387
v 3.214946 1.367398 0.734387
v 3.178475 1.141352 0.734387
v 2.950804 1.367398 0.734387
v 3.142001 1.406275 0.712425
v 2.950804 1.406275 0.712425
v 2.950804 1.441540 0.734387
v 2.950804 1.406275 0.734387
v 3.406144 1.441540 0.734387
v 3.214946 1.406275 0.712425
v 3.406144 1.406275 0.712425
v 3.406144 1.367398 0.734387
v 3.406144 1.406275 0.734387
v 3.178474 1.441540 0.756348
v 3.178474 1.667586 0.756348
v 3.178474 1.406275 0.756348
v 3.178474 1.367398 0.756348
v 3.178474 1.141352 0.756348
v 2.950804 1.406275 0.756348
v 3.142001 1.406275 0.756348
v 3.406144 1.406275 0.756348
v 3.214946 1.406275 0.756348
vt 0.815465 0.338197
vt 1.000000 0.592864
vt 0.952035 0.627620
vt 0.767501 0.372953
vt 0.929597 0.643879
vt 0.745062 0.389212
vt 0.000000 0.671589
vt 0.026176 0.687351
vt 0.000000 0.730822
vt 0.738712 0.333223
vt 0.684535 0.305682
vt 0.500000 0.051015
vt 0.522439 0.034756
vt 0.706974 0.289423
vt 0.570404 0.000000
vt 0.754938 0.254667
vt 0.052353 0.703113
vt 0.078529 0.687351
vt 0.104705 0.730822
vt 0.500001 0.439398
vt 0.703510 0.358731
vt 0.518976 0.492446
vt 0.560528 0.522928
vt 0.016026 0.488377
vt 0.000000 0.439398
vt 0.028789 0.479129
vt 1.000000 0.204481
vt 0.773913 0.307716
vt 0.958448 0.174000
vt 0.939473 0.120951
vt 0.971211 0.164751
vt 0.254938 0.254667
vt 0.232500 0.270926
vt 0.047965 0.016259
vt 0.070403 0.000000
vt 0.184535 0.305682
vt 0.000000 0.051015
vt 0.052352 0.703112
vt 0.261289 0.310656
vt 0.245062 0.389212
vt 0.293027 0.354456
vt 0.477562 0.609123
vt 0.429597 0.643879
vt 0.315465 0.338197
vt 0.500000 0.592864
vt 0.104705 0.671589
vt 0.060527 0.522928
vt 0.041552 0.469880
vt 0.226087 0.336164
vt 0.439474 0.120950
vt 0.481025 0.151432
vt 0.296490 0.285149
vt 0.500000 0.204480
vt 0.983974 0.155503
vt 0.052352 0.643879
vt 0.052352 0.643879
vn -0.5159 -0.0000 0.8567
vn 0.5158 0.0000 0.8567
vn 0.0000 -1.0000 0.0000
vn 0.0000 1.0000 0.0000
vn 0.0000 0.4919 0.8707
vn 0.0000 -0.5286 0.8489
vn 1.0000 0.0000 0.0000
vn 0.0000 -0.5286 0.8488
vn -1.0000 0.0000 0.0000
vn -0.5158 0.0000 -0.8567
vn 0.5158 0.0000 -0.8567
vn 0.0000 0.4918 -0.8707
vn 0.0000 -0.5286 -0.8489
usemtl TT_checker_512x512_UV_GRID.001
s off
f 1/1/1 2/2/1 3/3/1 4/4/1
f 4/4/2 3/3/2 5/5/2 6/6/2
f 3/7/3 7/8/3 5/9/3
f 4/4/2 6/6/2 8/10/2
f 1/1/1 4/4/1 8/10/1
f 9/11/2 10/12/2 11/13/2 12/14/2
f 12/14/1 11/13/1 13/15/1 14/16/1
f 11/17/4 15/18/4 13/19/4
f 12/14/1 14/16/1 8/10/1
f 9/11/2 12/14/2 8/10/2
f 16/20/5 9/11/5 17/21/5 18/22/5
f 6/6/6 19/23/6 18/22/6 17/21/6
f 18/24/7 19/25/7 20/26/7
f 6/6/8 17/21/8 8/10/8
f 9/11/5 8/10/5 17/21/5
f 21/27/8 1/1/8 22/28/8 23/29/8
f 14/16/5 24/30/5 23/29/5 22/28/5
f 1/1/8 8/10/8 22/28/8
f 14/16/5 22/28/5 8/10/5
f 23/29/9 24/30/9 25/31/9
f 1/32/10 26/33/10 27/34/10 2/35/10
f 26/33/11 6/36/11 5/37/11 27/34/11
f 27/38/3 5/9/3 7/8/3
f 26/33/11 28/39/11 6/36/11
f 1/32/10 28/39/10 26/33/10
f 9/40/11 29/41/11 30/42/11 10/43/11
f 29/41/10 14/44/10 13/45/10 30/42/10
f 30/46/4 13/19/4 15/18/4
f 29/41/10 28/39/10 14/44/10
f 9/40/11 28/39/11 29/41/11
f 16/47/12 31/48/12 32/49/12 9/40/12
f 6/36/13 32/49/13 31/48/13 19/25/13
f 31/48/7 20/26/7 19/25/7
f 6/36/13 28/39/13 32/49/13
f 9/40/12 32/49/12 28/39/12
f 21/50/13 33/51/13 34/52/13 1/32/13
f 14/44/12 34/52/12 33/51/12 24/53/12
f 1/32/13 34/52/13 28/39/13
f 14/44/12 28/39/12 34/52/12
f 33/54/9 21/27/9 25/31/9
f 7/8/3 2/55/3 27/38/3
f 7/8/3 3/7/3 2/55/3
f 15/18/4 10/56/4 30/46/4
f 15/18/4 11/17/4 10/56/4
f 20/26/7 31/48/7 16/47/7
f 20/26/7 16/47/7 18/24/7
f 25/31/9 24/30/9 33/54/9
f 25/31/9 21/27/9 23/29/9
