# Blender v3.1.2 OBJ File: 'NumbersPuzzels.blend'
# www.blender.org
mtllib 0.mtl
o Plane
v 3.940579 0.646834 0.792674
v 4.157670 0.910588 0.792674
v 4.125559 0.910729 0.772136
v 3.938607 0.683593 0.772136
v 3.916234 1.182457 0.792674
v 3.691030 0.906530 0.792674
v 3.723702 0.907235 0.772136
v 3.917641 1.144854 0.772136
v 4.070890 0.910969 0.808470
v 3.935251 0.746173 0.808470
v 3.920039 1.080835 0.808470
v 3.779329 0.908433 0.808470
v 3.944390 0.575794 0.757205
v 4.219728 0.910316 0.757205
v 3.913510 1.255129 0.757205
v 3.627882 0.905172 0.757205
v 3.940579 0.646834 0.721736
v 3.938607 0.683593 0.742274
v 4.125559 0.910729 0.742274
v 4.157670 0.910588 0.721736
v 3.916234 1.182457 0.721736
v 3.917641 1.144854 0.742274
v 3.723702 0.907235 0.742274
v 3.691030 0.906530 0.721736
v 3.935251 0.746173 0.705940
v 4.070890 0.910969 0.705940
v 3.920039 1.080835 0.705940
v 3.779329 0.908433 0.705940
vt 0.788761 0.894105
vt 0.116424 0.819802
vt 0.175354 0.763592
vt 0.731012 0.827948
vt 0.094526 0.106379
vt 0.792093 0.186356
vt 0.731018 0.241913
vt 0.154390 0.172841
vt 0.273693 0.669987
vt 0.635682 0.718972
vt 0.253196 0.282329
vt 0.629141 0.334421
vt 0.879987 0.999906
vt 0.031778 0.901846
vt 0.000094 0.000094
vt 0.879988 0.105244
vt 0.788761 0.894105
vt 0.731012 0.827948
vt 0.175354 0.763592
vt 0.116424 0.819802
vt 0.094526 0.106379
vt 0.154390 0.172841
vt 0.731018 0.241913
vt 0.792093 0.186356
vt 0.635682 0.718972
vt 0.273693 0.669987
vt 0.253196 0.282329
vt 0.629141 0.334421
vn -0.4915 0.4045 0.7712
vn 0.4933 -0.4027 0.7710
vn 0.5027 -0.4137 0.7590
vn 0.0000 0.0000 1.0000
vn 0.4683 0.4500 0.7604
vn -0.4871 -0.4326 0.7587
vn -0.5045 0.4118 0.7589
vn 0.4978 0.4421 0.7461
vn -0.4786 -0.4599 0.7479
vn 0.4583 -0.3772 0.8048
vn -0.4600 0.3755 0.8046
vn -0.4375 -0.4204 0.7949
vn 0.4552 0.4043 0.7933
vn -0.4915 0.4045 -0.7712
vn 0.4933 -0.4027 -0.7710
vn 0.5027 -0.4137 -0.7590
vn 0.0000 0.0000 -1.0000
vn 0.4683 0.4500 -0.7604
vn -0.4871 -0.4326 -0.7587
vn -0.5045 0.4118 -0.7589
vn 0.4978 0.4421 -0.7461
vn -0.4786 -0.4599 -0.7479
vn 0.4583 -0.3772 -0.8048
vn -0.4600 0.3755 -0.8046
vn -0.4375 -0.4204 -0.7949
vn 0.4552 0.4042 -0.7933
usemtl TT_checker_512x512_UV_GRID.001
s off
f 1/1/1 2/2/1 3/3/1 4/4/1
f 5/5/2 6/6/2 7/7/2 8/8/2
f 4/4/3 3/3/3 9/9/3 10/10/3
f 11/11/4 12/12/4 10/10/4 9/9/4
f 6/6/5 1/1/5 4/4/5 7/7/5
f 2/2/6 5/5/6 8/8/6 3/3/6
f 8/8/7 7/7/7 12/12/7 11/11/7
f 3/3/8 8/8/8 11/11/8 9/9/8
f 7/7/9 4/4/9 10/10/9 12/12/9
f 2/2/10 1/1/10 13/13/10 14/14/10
f 6/6/11 5/5/11 15/15/11 16/16/11
f 1/1/12 6/6/12 16/16/12 13/13/12
f 5/5/13 2/2/13 14/14/13 15/15/13
f 17/17/14 18/18/14 19/19/14 20/20/14
f 21/21/15 22/22/15 23/23/15 24/24/15
f 18/18/16 25/25/16 26/26/16 19/19/16
f 27/27/17 26/26/17 25/25/17 28/28/17
f 24/24/18 23/23/18 18/18/18 17/17/18
f 20/20/19 19/19/19 22/22/19 21/21/19
f 22/22/20 27/27/20 28/28/20 23/23/20
f 19/19/21 26/26/21 27/27/21 22/22/21
f 23/23/22 28/28/22 25/25/22 18/18/22
f 20/20/23 14/14/23 13/13/23 17/17/23
f 24/24/24 16/16/24 15/15/24 21/21/24
f 17/17/25 13/13/25 16/16/25 24/24/25
f 21/21/26 15/15/26 14/14/26 20/20/26
