# Blender v3.1.2 OBJ File: ''
# www.blender.org
mtllib 2.mtl
o Plane.005_Plane.006
v -0.788511 1.968141 -0.000000
v -0.425299 2.342121 0.000000
v -0.513689 2.310640 -0.079559
v -0.883979 1.906662 -0.079559
v -0.464338 2.520578 0.079559
v -0.551475 2.480507 0.000000
v -0.594178 2.299379 0.000000
v -0.940429 1.959691 -0.000000
v -0.464338 2.520578 -0.079559
v -0.883979 1.906662 0.079559
v -0.513689 2.310640 0.079559
v -0.382596 2.578652 0.000000
v -0.874324 2.689004 0.079559
v -0.928219 2.631205 0.000000
v -0.874324 2.689004 -0.079559
v -0.876796 2.771457 0.000000
v -0.441019 1.964063 -0.000000
v -0.489227 1.898581 -0.079559
v -0.476744 1.844493 -0.000000
v -0.489227 1.898581 0.079559
v -0.924890 1.846550 -0.000000
v -0.882903 2.016127 -0.000000
v -0.832319 1.991981 0.079559
v -0.832319 1.991982 -0.079559
v -0.951565 1.913434 -0.000000
vt 0.654678 0.463856
vt 0.586379 0.111364
vt 0.662307 0.130078
vt 0.726576 0.435885
vt 0.580429 0.590035
vt 0.586379 0.661012
vt 0.488576 0.670335
vt 0.493240 0.580462
vt 0.667354 0.000000
vt 0.726576 0.024404
vt 0.377628 0.095201
vt 0.462040 0.089925
vt 0.420345 0.485409
vt 0.333318 0.554251
vt 0.025432 0.428947
vt 0.127081 0.416479
vt 0.105065 0.580890
vt 0.000000 0.619504
vt 0.294251 0.153974
vt 0.209798 0.133780
vt 0.239035 0.055568
vt 0.327558 0.101672
vt 0.550569 0.233799
vt 0.462040 0.182751
vt 0.503601 0.000000
vt 0.586379 0.076065
vt 0.462040 0.669791
vt 0.385852 0.755870
vt 0.333318 0.707655
vt 0.248480 0.761453
vt 0.830662 0.000000
vt 0.923194 0.012390
vt 0.923194 0.278202
vt 0.837509 0.220421
vt 0.824296 0.836560
vt 0.728959 0.895797
vt 0.726576 0.500588
vt 0.824296 0.474363
vt 0.830662 0.474363
vt 0.726576 0.424310
vt 0.731442 0.028721
vt 0.830662 0.000000
vt 0.074328 0.761453
vt 0.074328 0.868915
vt 0.000000 0.817776
vt 0.420307 0.755870
vt 0.420307 0.853502
vt 0.333318 0.768791
vt 0.588502 0.497686
vt 0.679517 0.583449
vt 0.679517 0.894349
vt 0.586379 0.851201
vt 0.496765 0.782465
vt 0.586379 0.738700
vt 0.586379 0.982989
vt 0.494634 0.998721
vt 0.824296 0.511266
vt 0.914269 0.474363
vt 0.914269 0.874599
vt 0.827924 0.864462
vt 1.000000 0.760769
vt 0.914269 0.754310
vt 0.918905 0.504299
vt 1.000000 0.474363
vt 0.458708 0.000000
vt 0.721440 0.497686
vt 0.316063 0.000000
vt 0.333318 0.059679
vt 0.577323 0.701408
vt 0.547680 0.738700
vn -0.6222 0.6125 0.4875
vn 0.6099 -0.4698 0.6382
vn -0.7159 0.1476 0.6824
vn -0.6222 0.6125 -0.4875
vn 0.7052 -0.1660 -0.6893
vn 0.6099 -0.4698 -0.6382
vn 0.7052 -0.1660 0.6893
vn -0.7159 0.1476 -0.6824
vn 0.2790 0.6877 -0.6702
vn -0.2617 -0.6550 0.7089
vn 0.2790 0.6877 0.6702
vn -0.2617 -0.6550 -0.7089
vn 0.9996 0.0300 0.0000
vn 0.7314 -0.6820 0.0000
vn 0.0549 -0.7946 -0.6047
vn 0.0551 -0.7941 -0.6053
vn 0.0551 -0.7944 -0.6049
vn 0.0549 -0.7944 -0.6049
vn 0.0551 -0.7941 0.6053
vn 0.0549 -0.7946 0.6047
vn 0.0549 -0.7944 0.6049
vn 0.0551 -0.7944 0.6049
vn -0.0123 0.8772 0.4800
vn -0.0015 0.8814 0.4723
vn -0.0168 0.8764 0.4813
vn -0.0218 0.8801 0.4744
vn -0.0015 0.8814 -0.4723
vn -0.0123 0.8772 -0.4800
vn -0.0218 0.8801 -0.4744
vn -0.0168 0.8764 -0.4813
vn 0.5936 -0.5990 -0.5375
vn -0.7253 0.4310 -0.5368
vn -0.7251 0.4311 -0.5370
vn -0.7254 0.4309 -0.5367
vn 0.5936 -0.5990 0.5375
vn -0.7253 0.4310 0.5368
vn -0.7254 0.4310 0.5367
vn -0.7251 0.4312 0.5370
vn 0.8174 0.2640 -0.5120
vn 0.6556 0.3893 -0.6470
vn 0.7997 0.3421 -0.4935
vn 0.8174 0.2640 0.5120
vn 0.7404 0.2953 0.6038
vn 0.6556 0.3893 0.6470
vn 0.7423 -0.1787 0.6458
vn 0.7786 -0.2676 0.5676
vn 0.7277 -0.0514 -0.6840
vn 0.7423 -0.1787 -0.6458
vn 0.7786 -0.2676 -0.5676
usemtl TT_checker_512x512_UV_GRID
s off
f 1/1/1 2/2/1 3/3/1 24/4/1
f 22/5/2 8/6/2 4/7/2 24/8/2
f 3/3/3 2/2/3 12/9/3 9/10/3
f 1/11/4 23/12/4 11/13/4 2/14/4
f 11/15/5 7/16/5 6/17/5 5/18/5
f 22/19/6 23/20/6 10/21/6 8/22/6
f 7/23/7 3/24/7 9/25/7 6/26/7
f 2/14/8 11/13/8 5/27/8 12/28/8
f 5/18/9 6/17/9 14/29/9 13/30/9
f 9/31/10 12/32/10 16/33/10 15/34/10
f 6/35/11 9/36/11 15/37/11 14/38/11
f 12/39/12 5/40/12 13/41/12 16/42/12
f 13/43/13 15/44/13 16/45/13
f 14/46/14 15/47/14 13/48/14
f 10/49/15 1/50/16 17/51/17 20/52/18
f 1/53/19 4/54/20 18/55/21 17/56/22
f 4/57/23 21/58/24 19/59/25 18/60/26
f 21/61/27 10/62/28 20/63/29 19/64/30
f 7/16/31 11/15/31 23/20/31 22/19/31
f 1/11/32 10/65/33 23/12/34
f 7/23/35 22/5/35 24/8/35 3/24/35
f 1/1/36 24/4/37 4/66/38
f 10/21/39 21/67/40 25/68/41
f 4/7/42 25/69/43 21/70/44
f 25/69/45 4/7/46 8/6/45
f 25/68/47 8/22/48 10/21/49
