# Blender v3.1.2 OBJ File: ''
# www.blender.org
mtllib 5.mtl
o Plane.006_Plane.011
v -0.177778 0.197336 -0.026008
v -0.211732 0.147888 -0.000000
v 0.098179 -0.106566 -0.000000
v 0.143326 -0.086813 -0.026008
v 0.180399 -0.063894 -0.000000
v -0.081986 0.156606 -0.000000
v -0.081986 0.197336 -0.026008
v 0.107783 0.197336 -0.026008
v 0.138181 0.241742 -0.000000
v -0.081986 0.241740 -0.000000
v -0.211732 0.241742 -0.000000
v 0.138181 0.156606 -0.000000
v 0.146513 -0.196409 -0.026008
v 0.180399 -0.205986 -0.000000
v 0.098179 -0.173471 -0.000000
v -0.116005 -0.304093 -0.026009
v -0.126721 -0.367193 -0.000001
v -0.163065 -0.278606 -0.000000
v -0.177778 0.197336 0.026008
v 0.143326 -0.086813 0.026008
v -0.081986 0.197336 0.026008
v 0.107783 0.197336 0.026008
v 0.146513 -0.196409 0.026008
v -0.116005 -0.304093 0.026008
vt 0.441671 0.060018
vt 0.508345 0.128692
vt 0.120315 0.569544
vt 0.042859 0.544909
vt 0.000000 0.535427
vt 0.327727 0.155232
vt 0.309334 0.088438
vt 0.047168 0.144741
vt 0.010145 0.103815
vt 0.314305 0.038497
vt 0.493549 0.000000
vt 0.023567 0.220553
vt 0.055733 0.696131
vt 0.022400 0.730262
vt 0.130863 0.661284
vt 0.435377 0.765901
vt 0.472102 0.860188
vt 0.508345 0.727936
vt 0.962186 0.787230
vt 0.576469 0.292749
vt 0.624711 0.289216
vt 1.000000 0.739097
vt 0.825311 0.710103
vt 0.508345 0.322206
vt 0.834194 0.756924
vt 0.812331 0.827819
vt 0.518156 0.758166
vt 0.580635 0.696887
vt 0.985690 0.868869
vt 0.531137 0.640448
vt 0.530008 0.125735
vt 0.588920 0.140202
vt 0.634911 0.196707
vt 0.964947 0.000000
vt 0.956100 0.074360
vt 1.000000 0.133987
vn 0.2904 0.3403 0.8944
vn -0.3781 -0.4372 0.8161
vn -0.0000 -0.5054 0.8629
vn 0.6081 -0.0000 0.7939
vn 0.0000 0.5382 0.8428
vn -0.6501 -0.0000 0.7598
vn -0.5903 -0.0075 0.8072
vn 0.4864 0.0088 0.8737
vn -0.2419 0.5125 0.8239
vn 0.2038 -0.5016 0.8407
vn 0.5635 0.2312 0.7931
vn 0.2904 0.3403 -0.8944
vn -0.3781 -0.4372 -0.8161
vn -0.0000 -0.5054 -0.8629
vn 0.6081 0.0000 -0.7939
vn 0.0000 0.5382 -0.8428
vn -0.6501 0.0000 -0.7598
vn -0.5903 -0.0075 -0.8072
vn 0.4864 0.0088 -0.8737
vn -0.2419 0.5125 -0.8239
vn 0.2038 -0.5016 -0.8407
vn 0.5635 0.2312 -0.7931
usemtl TT_checker_512x512_UV_GRID.009
s 1
f 1/1/1 2/2/1 3/3/1 4/4/1
f 1/1/2 4/4/2 5/5/2 6/6/2
f 7/7/3 8/8/3 9/9/3 10/10/3
f 1/1/4 11/11/4 2/2/4
f 1/1/3 7/7/3 10/10/3 11/11/3
f 1/1/5 6/6/5 7/7/5
f 6/6/5 12/12/5 8/8/5 7/7/5
f 8/8/6 12/12/6 9/9/6
f 4/4/7 13/13/7 14/14/7 5/5/7
f 3/3/8 15/15/8 13/13/8 4/4/8
f 13/13/9 16/16/9 17/17/9 14/14/9
f 15/15/10 18/18/10 16/16/10 13/13/10
f 16/16/11 18/18/11 17/17/11
f 19/19/12 20/20/12 3/21/12 2/22/12
f 19/19/13 6/23/13 5/24/13 20/20/13
f 21/25/14 10/26/14 9/27/14 22/28/14
f 19/19/15 2/22/15 11/29/15
f 19/19/14 11/29/14 10/26/14 21/25/14
f 19/19/16 21/25/16 6/23/16
f 6/23/16 21/25/16 22/28/16 12/30/16
f 22/28/17 9/27/17 12/30/17
f 20/20/18 5/24/18 14/31/18 23/32/18
f 3/21/19 20/20/19 23/32/19 15/33/19
f 23/32/20 14/31/20 17/34/20 24/35/20
f 15/33/21 23/32/21 24/35/21 18/36/21
f 24/35/22 17/34/22 18/36/22
