# Blender v3.1.2 OBJ File: 'NumbersPuzzels.blend'
# www.blender.org
mtllib 7.mtl
o Plane.005_Plane.006
v 5.375967 1.651492 1.050112
v 5.668149 2.215751 1.050112
v 5.594841 2.157186 0.970553
v 5.346597 1.681853 0.970553
v 5.231097 2.228300 1.050112
v 5.247379 2.187939 0.970553
v 5.522413 2.120314 1.050112
v 5.300407 1.673683 1.050112
v 5.220297 2.147578 1.050112
v 5.346597 1.681853 1.129671
v 5.594841 2.157186 1.129671
v 5.247379 2.187939 1.129671
vt 0.084603 0.000000
vt 0.086141 1.000000
vt 0.000000 0.865080
vt 0.000000 0.021146
vt 0.506916 0.000000
vt 0.529020 0.687577
vt 0.456525 0.659782
vt 0.456525 0.111035
vt 0.368778 0.098998
vt 0.362830 0.874556
vt 0.224799 0.831327
vt 0.224799 0.000000
vt 0.802066 0.000000
vt 0.802204 0.473213
vt 0.667358 0.574542
vt 0.667358 0.030509
vt 0.461252 0.800913
vt 0.574217 0.743461
vt 0.574217 0.887859
vt 0.667358 0.652600
vt 0.779665 0.704473
vt 0.673841 0.797615
vt 0.224799 0.020959
vt 0.224799 0.864892
vt 0.667358 0.107265
vt 0.667358 0.656012
vt 0.456525 0.016346
vt 0.456525 0.847673
vt 0.914196 0.024871
vt 0.914196 0.568904
vt 0.456525 0.687577
vt 0.779665 0.574542
vn -0.7965 0.4141 0.4406
vn -0.0464 -0.8408 0.5394
vn 0.7853 -0.4006 0.4720
vn 0.0783 0.8767 0.4745
vn 0.9569 -0.1280 0.2608
vn 0.2726 0.9281 0.2536
vn -0.7965 0.4141 -0.4406
vn -0.0464 -0.8408 -0.5394
vn 0.7853 -0.4006 -0.4720
vn 0.0783 0.8767 -0.4745
vn 0.9569 -0.1280 -0.2608
vn 0.2726 0.9281 -0.2536
usemtl TT_checker_512x512_UV_GRID.001
s off
f 1/1/1 2/2/1 3/3/1 4/4/1
f 2/5/2 5/6/2 6/7/2 3/8/2
f 7/9/3 8/10/3 4/11/3 3/12/3
f 9/13/4 7/14/4 3/15/4 6/16/4
f 5/17/5 9/18/5 6/19/5
f 8/20/6 1/21/6 4/22/6
f 1/1/7 10/23/7 11/24/7 2/2/7
f 2/5/8 11/25/8 12/26/8 5/6/8
f 7/9/9 11/27/9 10/28/9 8/10/9
f 9/13/10 12/29/10 11/30/10 7/14/10
f 5/17/11 12/31/11 9/18/11
f 8/20/12 10/32/12 1/21/12
