# Blender v3.1.2 OBJ File: ''
# www.blender.org
mtllib 8.mtl
o Plane.003_Plane.004
v -0.109493 -0.000928 0.000125
v -0.250516 -0.117772 0.000125
v -0.173682 -0.117206 -0.048769
v -0.041545 -0.004121 -0.048769
v 0.006582 -0.334151 0.000125
v 0.238838 -0.138430 0.000125
v 0.169858 -0.139373 -0.048769
v 0.005000 -0.279346 -0.048769
v 0.235804 0.143070 0.000125
v -0.009924 0.344975 0.000125
v -0.008342 0.274665 -0.048769
v 0.164137 0.138370 -0.048769
v -0.216335 0.132715 0.000125
v -0.149423 0.127455 -0.048769
v 0.114854 -0.005791 0.000125
v 0.032850 -0.002221 -0.048769
v -0.002290 0.025854 -0.003302
v -0.092386 0.122720 -0.003302
v -0.005649 0.224461 -0.003302
v 0.098644 0.135341 -0.003302
v -0.113356 -0.116245 -0.012791
v -0.005183 -0.038423 -0.012791
v 0.002613 -0.226042 -0.012791
v 0.113857 -0.137739 -0.012791
v -0.041545 -0.004121 0.049018
v -0.173682 -0.117206 0.049018
v 0.005000 -0.279346 0.049018
v 0.169858 -0.139373 0.049018
v 0.164137 0.138370 0.049018
v -0.008342 0.274665 0.049018
v -0.149423 0.127455 0.049018
v 0.032850 -0.002221 0.049018
v -0.092386 0.122720 0.004458
v -0.002290 0.025854 0.004458
v -0.005649 0.224461 0.004458
v 0.098644 0.135341 0.004458
v -0.005183 -0.038423 0.010889
v -0.113356 -0.116245 0.010889
v 0.002613 -0.226042 0.010889
v 0.113857 -0.137739 0.010889
vt 0.679623 0.647101
vt 0.542976 0.532105
vt 0.617897 0.533231
vt 0.745907 0.644494
vt 0.795304 0.323020
vt 1.020330 0.515615
vt 0.953070 0.514181
vt 0.793353 0.376452
vt 1.015269 0.790101
vt 0.774137 0.985157
vt 0.776204 0.916605
vt 0.945417 0.784983
vt 0.574436 0.776627
vt 0.639726 0.771997
vt 0.898435 0.644034
vt 0.818441 0.646903
vt 0.783964 0.674018
vt 0.695382 0.767806
vt 0.779205 0.867668
vt 0.881573 0.781540
vt 0.676718 0.534619
vt 0.781621 0.611316
vt 0.790626 0.428415
vt 0.898447 0.515355
vt 0.368083 0.648537
vt 0.301845 0.644949
vt 0.431488 0.535593
vt 0.506418 0.535576
vt 0.257211 0.322780
vt 0.258372 0.376234
vt 0.096633 0.511584
vt 0.029359 0.512022
vt 0.030358 0.786554
vt 0.100277 0.782470
vt 0.267524 0.916582
vt 0.268577 0.985157
vt 0.406127 0.774009
vt 0.471341 0.779605
vt 0.149340 0.642231
vt 0.229284 0.646284
vt 0.350539 0.768995
vt 0.263356 0.673907
vt 0.265247 0.867606
vt 0.164166 0.779972
vt 0.266626 0.611246
vt 0.372653 0.536110
vt 0.260329 0.428232
vt 0.151233 0.513567
vn 0.4555 -0.5411 0.7070
vn -0.4775 0.5649 0.6730
vn -0.4284 -0.5297 0.7321
vn 0.4914 -0.4750 0.7300
vn -0.4807 0.4189 0.7703
vn 0.5375 0.4352 0.7223
vn 0.5375 0.4352 0.7222
vn 0.4739 0.5455 0.6913
vn 0.4738 0.5455 0.6913
vn -0.4788 -0.4632 0.7458
vn -0.4788 -0.4631 0.7458
vn -0.4787 -0.4631 0.7459
vn -0.5392 -0.4673 0.7007
vn -0.5504 0.5037 0.6658
vn 0.5186 -0.4816 0.7065
vn 0.4717 0.5792 0.6648
vn -0.3985 0.5016 0.7679
vn -0.4562 -0.4943 0.7400
vn 0.4275 -0.5170 0.7416
vn 0.4260 0.4613 0.7783
vn 0.0215 -0.8431 0.5373
vn -0.0182 0.7144 0.6995
vn 0.4555 -0.5411 -0.7070
vn -0.4775 0.5649 -0.6730
vn -0.4284 -0.5297 -0.7321
vn 0.4914 -0.4750 -0.7300
vn -0.4807 0.4189 -0.7703
vn 0.5375 0.4352 -0.7223
vn 0.5376 0.4352 -0.7222
vn 0.4739 0.5455 -0.6913
vn 0.4738 0.5455 -0.6913
vn -0.4788 -0.4631 -0.7458
vn -0.4787 -0.4631 -0.7459
vn -0.5338 -0.4626 -0.7078
vn -0.5455 0.4992 -0.6733
vn 0.5133 -0.4767 -0.7136
vn 0.4675 0.5740 -0.6723
vn -0.4120 0.5186 -0.7492
vn -0.4705 -0.5098 -0.7202
vn 0.4410 -0.5333 -0.7219
vn 0.4409 0.4774 -0.7601
vn 0.0214 -0.8382 -0.5450
vn -0.0188 0.7343 -0.6785
vn 0.0000 0.0000 -1.0000
vn 0.0000 -0.0000 1.0000
usemtl TT_checker_512x512_UV_GRID.012
s 1
f 1/1/1 2/2/1 3/3/1 4/4/1
f 5/5/2 6/6/2 7/7/2 8/8/2
f 9/9/3 10/10/3 11/11/3 12/12/3
f 10/10/4 13/13/4 14/14/4 11/11/4
f 15/15/5 9/9/5 12/12/5 16/16/5
f 13/13/6 1/1/7 4/4/6 14/14/7
f 2/2/8 5/5/8 8/8/9 3/3/9
f 6/6/10 15/15/11 16/16/12 7/7/12
f 14/14/13 4/4/13 17/17/13 18/18/13
f 11/11/14 14/14/14 18/18/14 19/19/14
f 16/16/15 12/12/15 20/20/15 17/17/15
f 12/12/16 11/11/16 19/19/16 20/20/16
f 4/4/17 3/3/17 21/21/17 22/22/17
f 3/3/18 8/8/18 23/23/18 21/21/18
f 8/8/19 7/7/19 24/24/19 23/23/19
f 7/7/20 16/16/20 22/22/20 24/24/20
f 17/17/21 4/4/21 16/16/21
f 22/22/22 16/16/22 4/4/22
f 1/25/23 25/26/23 26/27/23 2/28/23
f 5/29/24 27/30/24 28/31/24 6/32/24
f 9/33/25 29/34/25 30/35/25 10/36/25
f 10/36/26 30/35/26 31/37/26 13/38/26
f 15/39/27 32/40/27 29/34/27 9/33/27
f 13/38/28 31/37/29 25/26/28 1/25/29
f 2/28/30 26/27/31 27/30/31 5/29/30
f 6/32/32 28/31/33 32/40/33 15/39/32
f 31/37/34 33/41/34 34/42/34 25/26/34
f 30/35/35 35/43/35 33/41/35 31/37/35
f 32/40/36 34/42/36 36/44/36 29/34/36
f 29/34/37 36/44/37 35/43/37 30/35/37
f 25/26/38 37/45/38 38/46/38 26/27/38
f 26/27/39 38/46/39 39/47/39 27/30/39
f 27/30/40 39/47/40 40/48/40 28/31/40
f 28/31/41 40/48/41 37/45/41 32/40/41
f 34/42/42 32/40/42 25/26/42
f 37/45/43 25/26/43 32/40/43
f 34/42/44 33/41/44 35/43/44 36/44/44
f 17/17/45 20/20/45 19/19/45 18/18/45
f 23/23/45 24/24/45 22/22/45 21/21/45
f 39/47/44 38/46/44 37/45/44 40/48/44
