# Blender v3.1.2 OBJ File: 'NumbersPuzzels.blend'
# www.blender.org
mtllib Base.mtl
o Cube_Cube.001
v -1.304373 0.037221 0.557827
v -1.304373 1.092717 0.557827
v 1.052135 0.037221 0.557827
v 1.052135 1.092717 0.557827
v -1.477697 1.209445 0.731151
v 1.225459 1.209445 0.731151
v -1.477697 1.367440 0.731151
v 1.225459 1.367440 0.731151
v -1.269191 1.367440 0.522645
v 1.016953 1.367440 0.522645
v -1.080842 1.613405 0.334296
v 0.828604 1.613405 0.334296
v -1.304373 0.037221 -0.620427
v -1.304373 1.092717 -0.620427
v 1.052135 0.037221 -0.620427
v 1.052135 1.092717 -0.620427
v -1.477697 1.209445 -0.620427
v 1.225459 1.209445 -0.620427
v -1.477697 1.367440 -0.620427
v 1.225459 1.367440 -0.620427
v -1.269191 1.367440 -0.620427
v 1.016953 1.367440 -0.620427
v -1.080842 1.613405 -0.620427
v 0.828604 1.613405 -0.620427
v -1.304373 1.092717 -0.975635
v 1.052135 0.037221 -0.975635
v -1.477697 1.209445 -0.972696
v -1.477697 1.367440 -0.972696
v -1.269191 1.367440 -0.963185
v -1.080842 1.613405 -0.958257
v -1.304373 0.037221 -0.975635
v 1.052135 1.092717 -0.975635
v 1.225459 1.209445 -0.972696
v 1.225459 1.367440 -0.972696
v 1.016953 1.367440 -0.963185
v 0.828604 1.613405 -0.958257
vt 0.231085 0.462169
vt 0.231085 0.774127
vt 0.029634 0.774127
vt 0.029634 0.462169
vt 0.389108 0.432535
vt 0.077150 0.432535
vt 0.077150 0.029634
vt 0.389108 0.029634
vt 0.785083 0.462169
vt 0.785083 0.865071
vt 0.583632 0.865071
vt 0.583632 0.462169
vt 0.046696 0.000000
vt 0.046696 0.462169
vt 0.000000 0.462169
vt 0.000000 0.000000
vt 0.352547 0.774127
vt 0.553998 0.774127
vt 0.583632 0.804581
vt 0.352547 0.804581
vt 0.583632 0.851277
vt 0.352547 0.851277
vt 0.620192 0.462169
vt 0.389108 0.462169
vt 0.424757 0.426520
vt 0.620192 0.426520
vt 0.389108 0.000000
vt 0.424757 0.035649
vt 0.843654 0.000000
vt 0.843654 0.326466
vt 0.680421 0.326466
vt 0.680421 0.000000
vt 0.922907 0.657605
vt 0.922907 0.462169
vt 1.000000 0.494372
vt 1.000000 0.657605
vt 0.845814 0.853040
vt 0.845814 0.462169
vt 0.922907 0.494372
vt 0.922907 0.820837
vt 0.922907 0.716208
vt 1.000000 0.715365
vt 0.680421 0.462169
vt 0.678795 0.426520
vt 0.620192 0.000000
vt 0.620192 0.035649
vt 0.901414 0.254038
vt 0.901414 0.058603
vt 0.978507 0.058603
vt 0.978507 0.221836
vt 0.292318 0.804581
vt 0.292318 0.851277
vt 0.000000 0.804581
vt 0.231085 0.804581
vt 0.231085 0.851277
vt 0.000000 0.851277
vt 0.291816 0.774127
vt 0.845814 0.462169
vt 0.845814 0.865071
vt 0.291816 0.462169
vt 0.291816 0.774127
vt 0.553998 0.462169
vt 0.352547 0.462169
vt 0.680421 0.000000
vt 0.678795 0.035649
vt 0.901414 0.000000
vt 0.978507 0.000843
vt 0.291313 0.804581
vt 0.291313 0.851277
vt 0.291816 0.462169
vt 0.901414 0.000000
vt 0.901414 0.326466
vn 1.0000 0.0000 0.0000
vn 0.0000 0.0000 1.0000
vn 0.0000 -1.0000 0.0000
vn -0.5586 -0.8294 0.0000
vn 0.0000 -0.8294 0.5586
vn -1.0000 0.0000 0.0000
vn 0.0000 1.0000 0.0000
vn -0.7940 0.6080 0.0000
vn 0.0000 0.6080 0.7940
vn 0.7940 0.6080 0.0000
vn 0.5586 -0.8294 0.0000
usemtl TT_checker_512x512_UV_GRID.001
s off
f 15/1/1 16/2/1 4/3/1 3/4/1
f 3/5/2 4/6/2 2/7/2 1/8/2
f 13/9/3 15/10/3 3/11/3 1/12/3
f 5/13/2 6/14/2 8/15/2 7/16/2
f 14/17/4 2/18/4 5/19/4 17/20/4
f 2/7/5 4/6/5 6/14/5 5/13/5
f 17/20/6 5/19/6 7/21/6 19/22/6
f 19/23/7 7/24/7 9/25/7 21/26/7
f 7/24/7 8/27/7 10/28/7 9/25/7
f 24/29/7 23/30/7 11/31/7 12/32/7
f 21/33/8 9/34/8 11/35/8 23/36/8
f 9/37/9 10/38/9 12/39/9 11/40/9
f 29/41/8 21/33/8 23/36/8 30/42/8
f 28/43/7 19/23/7 21/26/7 29/44/7
f 8/27/7 20/45/7 22/46/7 10/28/7
f 10/47/10 22/48/10 24/49/10 12/50/10
f 27/51/6 17/20/6 19/22/6 28/52/6
f 6/53/1 18/54/1 20/55/1 8/56/1
f 25/57/4 14/17/4 17/20/4 27/51/4
f 4/3/11 16/2/11 18/54/11 6/53/11
f 31/58/3 26/59/3 15/10/3 13/9/3
f 26/60/1 32/61/1 16/2/1 15/1/1
f 1/62/6 2/18/6 14/17/6 13/63/6
f 20/45/7 34/64/7 35/65/7 22/46/7
f 22/48/10 35/66/10 36/67/10 24/49/10
f 18/54/1 33/68/1 34/69/1 20/55/1
f 16/2/11 32/61/11 33/68/11 18/54/11
f 13/63/6 14/17/6 25/57/6 31/70/6
f 36/71/7 30/72/7 23/30/7 24/29/7
o Cube.001_Cube.002
v -1.816316 0.026056 -0.811002
v 1.564078 0.026056 -0.811002
v -1.816316 0.026056 -1.148832
v 1.564078 0.026056 -1.148832
v 1.564078 3.996956 -0.811002
v -1.816316 3.996956 -0.811002
v 1.564078 3.582318 -0.811002
v -1.816316 3.582318 -0.811002
v 1.564078 3.222903 -1.148832
v -1.816316 3.222903 -1.148832
v -1.816316 4.192539 -0.022144
v -1.695212 4.171055 0.063139
v -1.780846 4.192626 0.028563
v 1.442974 4.171055 0.063139
v 1.564078 4.192539 -0.022144
v 1.528608 4.192626 0.028563
v 1.442974 4.047153 0.140975
v 1.564078 3.985596 0.107926
v 1.528607 4.013845 0.140893
v -1.816316 3.985596 0.107926
v -1.695212 4.047153 0.140975
v -1.780846 4.013845 0.140893
v 1.564078 3.587658 -1.148832
v 1.564078 3.755546 -1.066840
v 1.564078 3.674325 -1.124817
v -1.816316 3.755546 -1.066839
v -1.816316 3.587658 -1.148832
v -1.816316 3.674325 -1.124817
vt 0.826846 0.116819
vt 0.817046 0.045179
vt 0.890531 0.000702
vt 0.908301 0.034695
vt 0.337821 0.544335
vt 0.675643 0.544335
vt 0.675643 0.606443
vt 0.337821 0.606443
vt 0.337821 0.636799
vt 0.675643 0.636799
vt 0.675643 0.683426
vt 0.337821 0.683426
vt 0.684264 0.552346
vt 0.709219 0.619020
vt 0.699419 0.690661
vt 0.679793 0.645485
vt 0.675973 0.630667
vt 0.675643 0.615367
vt 0.337821 0.000000
vt 0.675643 0.000000
vt 0.759821 0.000000
vt 0.793270 0.004576
vt 0.910898 0.731264
vt 0.877448 0.735840
vt 0.801891 0.183494
vt 0.337821 0.694083
vt 0.000000 0.694083
vt 0.000000 0.087023
vt 0.337821 0.087023
vt 0.790674 0.701145
vt 0.772904 0.735138
vt 0.000000 0.036962
vt 0.337821 0.036962
vt 0.910898 0.337821
vt 0.910898 0.000000
vt 0.995036 0.000000
vt 0.995036 0.337821
vt 0.325719 0.004389
vt 0.012103 0.004389
vt 0.003545 0.000000
vt 0.334277 0.000000
vt 1.000000 0.003545
vt 1.000000 0.334277
vt 0.895550 0.000000
vt 0.910898 0.029368
vt 0.003545 0.032814
vt 0.012103 0.027130
vt 0.793270 0.706472
vt 0.777923 0.735840
vt 0.334277 0.032814
vt 0.325719 0.027130
vt 0.337821 0.621718
vt 0.675643 0.621718
vt 0.793270 0.120472
vt 0.793600 0.105173
vt 0.797421 0.090354
vn 1.0000 -0.0000 0.0000
vn 0.0000 0.0000 -1.0000
vn -0.0000 0.7273 -0.6863
vn -1.0000 0.0000 0.0000
vn 0.0000 0.0000 1.0000
vn 0.0000 -0.9157 0.4019
vn 0.0000 0.9706 -0.2406
vn 0.0000 0.8484 0.5293
vn -0.0000 1.0000 -0.0017
vn 0.7711 0.3388 0.5391
vn 0.2035 0.5209 0.8290
vn -0.7711 0.3388 0.5391
vn -0.2035 0.5209 0.8290
vn 0.0000 -0.0025 1.0000
vn 0.0000 -0.7593 0.6507
vn 0.0000 0.5319 0.8468
vn -0.0000 0.5810 -0.8139
vn 0.0000 0.2670 -0.9637
usemtl TT_checker_512x512_UV_GRID.002
s off
f 43/73/12 41/74/12 51/75/12 54/76/12
f 45/77/13 46/78/13 63/79/13 59/80/13
f 60/81/14 62/82/14 42/83/14 41/84/14
f 46/85/15 44/86/15 42/87/15 62/88/15 64/89/15 63/90/15
f 40/91/13 39/92/13 46/78/13 45/77/13
f 39/93/15 37/94/15 44/86/15 46/85/15
f 38/95/12 40/96/12 45/97/12 43/73/12
f 37/98/16 38/99/16 43/100/16 44/101/16
f 42/87/15 44/86/15 56/102/15 47/103/15
f 44/101/17 43/100/17 54/104/17 56/105/17
f 41/106/18 42/107/18 47/108/18 51/109/18
f 48/110/19 50/111/19 52/112/19 49/113/19
f 49/114/20 52/115/20 51/109/20 47/108/20
f 54/76/21 51/75/21 52/116/21 55/117/21
f 55/118/22 52/112/22 50/111/22 53/119/22
f 47/103/23 56/102/23 58/120/23 49/121/23
f 49/113/24 58/122/24 57/123/24 48/110/24
f 53/119/25 57/123/25 58/122/25 55/118/25
f 55/118/26 58/122/26 56/105/26 54/104/26
f 57/123/27 53/119/27 50/111/27 48/110/27
f 62/82/28 60/81/28 61/124/28 64/125/28
f 64/125/29 61/124/29 59/80/29 63/79/29
f 43/73/12 45/97/12 59/126/12 61/127/12 60/128/12 41/74/12
