# Blender v3.1.2 OBJ File: ''
# www.blender.org
mtllib wall.mtl
o Cube.002_Cube.024
v -14.550560 5.156950 -0.869535
v -14.550560 12.156950 -0.869533
v -14.550560 12.156950 -1.869533
v -14.550560 5.156950 -1.869535
v 2.021887 5.156950 -1.869535
v 2.021887 12.156950 -1.869533
v 14.244865 12.156950 -1.869533
v 14.244865 5.156950 -1.869535
v 14.244865 12.156950 -0.869533
v 14.244865 5.156950 -0.869535
v -2.281986 5.156950 -0.869535
v -2.281986 12.156950 -0.869533
v -14.550560 4.544839 -1.869535
v -1.540812 4.544839 -1.869535
v -2.608639 -0.500000 -1.869537
v -14.550560 -0.500000 -1.869537
v -2.281986 12.156950 -1.869533
v 2.021887 12.156950 -0.869533
v -2.281986 5.156950 -1.869535
v 2.021887 5.156950 -0.869535
v 1.283711 4.503829 -0.869535
v 1.283711 4.503829 -1.869535
v 2.379013 -0.500000 -1.869537
v 2.379013 -0.500000 -0.869537
v 14.244865 -0.500000 -1.869537
v 14.244865 -0.500000 -0.869537
v -2.608639 -0.500000 -0.869537
v -14.550560 -0.500000 -0.869537
v -14.550560 4.544839 -0.869535
v 14.244865 4.503829 -1.869535
v 14.244865 4.503829 -0.869535
v -1.540812 4.544839 -0.869535
vt 0.318531 0.415166
vt 0.318531 0.362439
vt 0.371258 0.362439
vt 0.371258 0.415166
vt 0.423986 0.242299
vt 0.371259 0.242299
vt 0.371259 0.135507
vt 0.423986 0.135507
vt 0.371258 0.811766
vt 0.371258 0.864493
vt 0.318531 0.864493
vt 0.318531 0.811766
vt 0.265804 0.255647
vt 0.318531 0.255648
vt 0.265804 0.362439
vt 0.428597 0.362439
vt 0.428597 0.253349
vt 0.466597 0.256661
vt 0.466597 0.362439
vt 0.371259 0.255648
vt 0.318531 0.242299
vt 0.318532 0.135507
vt 0.371258 0.606852
vt 0.371258 0.620201
vt 0.318531 0.620200
vt 0.318531 0.606851
vt 0.265804 0.135507
vt 0.265804 0.242299
vt 0.423986 0.255648
vt 0.423986 0.362439
vt 0.318531 0.625627
vt 0.371258 0.625627
vt 0.371258 0.663471
vt 0.318531 0.663471
vt 0.371258 0.769155
vt 0.318531 0.769155
vt 0.371258 0.457777
vt 0.371258 0.563555
vt 0.318531 0.563555
vt 0.318531 0.457777
vt 0.318531 0.419777
vt 0.371258 0.419777
vt 0.371258 0.806846
vt 0.318531 0.806846
vt 0.371258 0.601700
vt 0.318531 0.601700
vt 0.261193 0.253348
vt 0.261193 0.362439
vt 0.223193 0.362439
vt 0.223193 0.256661
vt 0.428905 0.244588
vt 0.428906 0.135507
vt 0.466597 0.135507
vt 0.466597 0.241191
vt 0.260885 0.135507
vt 0.260885 0.244588
vt 0.223193 0.241191
vt 0.223193 0.135507
vn -1.0000 -0.0000 0.0000
vn 0.0000 0.0000 -1.0000
vn 1.0000 -0.0000 0.0000
vn 0.0000 -0.0000 1.0000
vn 0.0000 1.0000 0.0000
vn 0.0000 -1.0000 -0.0000
vn -0.9769 -0.2138 -0.0000
vn 0.9783 -0.2071 -0.0000
vn -0.6626 0.7489 0.0000
vn 0.6368 0.7710 0.0000
usemtl TT_checker_512x512_UV_GRID
s 1
f 1/1/1 2/2/1 3/3/1 4/4/1
f 5/5/2 6/6/2 7/7/2 8/8/2
f 8/9/3 7/10/3 9/11/3 10/12/3
f 11/13/4 12/14/4 2/2/4 1/15/4
f 13/16/2 14/17/2 15/18/2 16/19/2
f 17/20/5 3/3/5 2/2/5 12/14/5
f 7/7/5 6/6/5 18/21/5 9/22/5
f 19/23/6 5/24/6 20/25/6 11/26/6
f 10/27/4 9/22/4 18/21/4 20/28/4
f 19/29/2 17/20/2 6/6/2 5/5/2
f 4/30/2 3/3/2 17/20/2 19/29/2
f 21/31/7 22/32/7 23/33/7 24/34/7
f 6/6/5 17/20/5 12/14/5 18/21/5
f 20/28/4 18/21/4 12/14/4 11/13/4
f 23/33/6 25/35/6 26/36/6 24/34/6
f 16/37/6 15/38/6 27/39/6 28/40/6
f 29/41/1 13/42/1 16/37/1 28/40/1
f 30/43/3 31/44/3 26/36/3 25/35/3
f 14/45/8 32/46/8 27/39/8 15/38/8
f 32/47/4 29/48/4 28/49/4 27/50/4
f 22/51/2 30/52/2 25/53/2 23/54/2
f 31/55/4 21/56/4 24/57/4 26/58/4
f 10/27/4 20/28/4 21/56/4 31/55/4
f 5/5/2 8/8/2 30/52/2 22/51/2
f 8/9/3 10/12/3 31/44/3 30/43/3
f 20/25/9 5/24/9 22/32/9 21/31/9
f 11/13/4 1/15/4 29/48/4 32/47/4
f 19/23/10 11/26/10 32/46/10 14/45/10
f 1/1/1 4/4/1 13/42/1 29/41/1
f 4/30/2 19/29/2 14/17/2 13/16/2
