# Blender v3.1.2 OBJ File: ''
# www.blender.org
mtllib door teste.mtl
o Cube.001_Cube.002
v -2.201070 -0.533207 -0.517218
v -1.339673 2.347471 -0.517218
v -3.434099 -0.533207 -0.517218
v -3.434099 2.347471 -0.517218
v -1.339673 2.347471 -0.886883
v -2.201070 -0.533207 -0.886883
v -1.747103 -0.533207 -0.886883
v -0.885707 2.347471 -0.886883
v 2.271834 -0.533207 -0.517218
v 1.444484 2.347471 -0.517218
v 3.488428 -0.533207 -0.517218
v 3.522415 2.347471 -0.517218
v 1.444484 2.347471 -0.886883
v 2.271834 -0.533207 -0.886883
v 1.801551 -0.533207 -0.886883
v 0.974200 2.347471 -0.886883
v -1.613366 2.347471 -0.517218
v -1.613366 2.876553 -0.517218
v 1.718176 2.347471 -0.517218
v 1.718176 2.876553 -0.517218
v 3.522415 2.876553 -0.517218
v -3.434100 2.876553 -0.517218
v -1.409521 3.548551 -0.517218
v 1.497997 3.548551 -0.517218
v 3.522415 3.548551 -0.517218
v -3.434099 3.548552 -0.517218
v -1.613366 2.876553 -0.886883
v -1.613366 2.347471 -0.886883
v 1.718176 2.347471 -0.886883
v 1.718176 2.876553 -0.886883
v 1.224305 2.876553 -0.517218
v 1.224304 3.548551 -0.517218
v 1.224305 2.876553 -0.886883
v 0.974200 2.876553 -0.517218
v 0.974200 3.548551 -0.517218
v 0.974200 2.876553 -0.886883
v -0.885707 2.876553 -0.517218
v -0.885707 3.548551 -0.517218
v -0.885707 2.876553 -0.886883
v -1.135828 2.876553 -0.517218
v -1.135828 3.548551 -0.517218
v -1.135828 2.876553 -0.886883
v 2.468436 -0.533207 -0.517218
v -2.346925 -0.533207 -0.517218
v -2.201070 -0.533207 0.049588
v -1.339673 2.347471 0.049588
v -3.434099 -0.533207 0.049588
v -3.434099 2.347471 0.049588
v -1.339673 2.347471 0.419252
v -2.201070 -0.533207 0.419252
v -1.747103 -0.533207 0.419252
v -0.885707 2.347471 0.419252
v 2.271834 -0.533207 0.049588
v 1.444484 2.347471 0.049588
v 3.488428 -0.533207 0.049588
v 3.522415 2.347471 0.049588
v 1.444484 2.347471 0.419252
v 2.271834 -0.533207 0.419252
v 1.801551 -0.533207 0.419252
v 0.974200 2.347471 0.419252
v -1.613366 2.347471 0.049588
v -1.613366 2.876553 0.049588
v 1.718176 2.347471 0.049588
v 1.718176 2.876553 0.049588
v 3.522415 2.876553 0.049588
v -3.434100 2.876553 0.049588
v -1.409521 3.548551 0.049588
v 1.497997 3.548551 0.049588
v 3.522415 3.548551 0.049588
v -3.434099 3.548552 0.049588
v -1.613366 2.876553 0.419252
v -1.613366 2.347471 0.419252
v 1.718176 2.347471 0.419252
v 1.718176 2.876553 0.419252
v 1.224305 2.876553 0.049588
v 1.224304 3.548551 0.049588
v 1.224305 2.876553 0.419252
v 0.974200 2.876553 0.049588
v 0.974200 3.548551 0.049588
v 0.974200 2.876553 0.419252
v -0.885707 2.876553 0.049588
v -0.885707 3.548551 0.049588
v -0.885707 2.876553 0.419252
v -1.135828 2.876553 0.049588
v -1.135828 3.548551 0.049588
v -1.135828 2.876553 0.419252
v 2.502776 -0.533207 0.049588
v -2.346925 -0.533207 0.049588
vt 0.625000 0.250000
vt 0.375000 0.250000
vt 0.375000 0.250000
vt 0.625000 0.250000
vt 0.375000 0.250000
vt 0.625000 0.250000
vt 0.625000 0.500000
vt 0.375000 0.500000
vt 0.375000 0.250000
vt 0.625000 0.250000
vt 0.625000 0.250000
vt 0.625000 0.250000
vt 0.375000 0.250000
vt 0.375000 0.250000
vt 0.375000 0.250000
vt 0.625000 0.250000
vt 0.375000 0.250000
vt 0.375000 0.500000
vt 0.625000 0.500000
vt 0.625000 0.250000
vt 0.375000 0.250000
vt 0.625000 0.250000
vt 0.625000 0.476467
vt 0.625000 0.500000
vt 0.625000 0.500000
vt 0.625000 0.476467
vt 0.625000 0.250000
vt 0.625000 0.250000
vt 0.625000 0.250000
vt 0.625000 0.250000
vt 0.375000 0.500000
vt 0.625000 0.500000
vt 0.375000 0.500000
vt 0.375000 0.500000
vt 0.625000 0.500000
vt 0.375000 0.250000
vt 0.375000 0.250000
vt 0.375000 0.250000
vt 0.625000 0.250000
vt 0.625000 0.273533
vt 0.625000 0.273533
vt 0.625000 0.500000
vt 0.625000 0.500000
vt 0.625000 0.500000
vt 0.625000 0.500000
vt 0.375000 0.476467
vt 0.375000 0.500000
vt 0.625000 0.250000
vt 0.375000 0.250000
vt 0.375000 0.454962
vt 0.625000 0.454962
vt 0.625000 0.476467
vt 0.625000 0.454962
vt 0.625000 0.295040
vt 0.625000 0.295040
vt 0.375000 0.295040
vt 0.625000 0.454962
vt 0.375000 0.273533
vt 0.625000 0.273533
vt 0.625000 0.295040
vt 0.670038 0.500000
vt 0.670038 0.500000
vt 0.829960 0.500000
vt 0.829960 0.500000
vt 0.648533 0.500000
vt 0.648533 0.500000
vt 0.851467 0.500000
vt 0.851467 0.500000
vt 0.875000 0.500000
vt 0.875000 0.500000
vt 0.875000 0.500000
vt 0.875000 0.500000
vt 0.625000 0.250000
vt 0.625000 0.250000
vt 0.375000 0.250000
vt 0.625000 0.250000
vt 0.375000 0.250000
vt 0.375000 0.250000
vt 0.375000 0.500000
vt 0.625000 0.500000
vt 0.625000 0.250000
vt 0.375000 0.250000
vt 0.625000 0.250000
vt 0.625000 0.250000
vt 0.375000 0.250000
vt 0.375000 0.250000
vt 0.625000 0.250000
vt 0.625000 0.500000
vt 0.375000 0.500000
vt 0.375000 0.250000
vt 0.625000 0.250000
vt 0.375000 0.454962
vt 0.625000 0.476467
vt 0.625000 0.476467
vt 0.625000 0.500000
vt 0.625000 0.500000
vt 0.625000 0.250000
vt 0.625000 0.250000
vt 0.375000 0.500000
vt 0.375000 0.250000
vt 0.625000 0.273533
vt 0.625000 0.273533
vt 0.375000 0.476467
vt 0.375000 0.500000
vt 0.375000 0.250000
vt 0.625000 0.250000
vt 0.625000 0.454962
vt 0.625000 0.476467
vt 0.625000 0.454962
vt 0.625000 0.295040
vt 0.625000 0.295040
vt 0.375000 0.295040
vt 0.625000 0.454962
vt 0.375000 0.273533
vt 0.625000 0.273533
vt 0.625000 0.295040
vn 0.0000 0.0000 -1.0000
vn -0.9581 0.2865 -0.0000
vn -1.0000 0.0000 0.0000
vn 0.9611 0.2760 0.0000
vn 0.0000 1.0000 0.0000
vn 1.0000 0.0000 0.0000
vn 0.0000 -1.0000 -0.0000
vn 0.9999 -0.0118 0.0000
vn 0.0000 0.0000 1.0000
vn 0.9581 -0.2865 0.0000
vn -0.9611 -0.2760 0.0000
usemtl None
s off
f 17/1/1 44/2/1 3/3/1 4/4/1
f 6/5/1 5/6/1 8/7/1 7/8/1
f 1/9/2 2/10/2 5/6/2 6/5/2
f 19/11/1 12/12/1 11/13/1 43/14/1
f 3/3/3 47/15/3 48/16/3 4/4/3
f 14/17/1 15/18/1 16/19/1 13/20/1
f 9/21/4 14/17/4 13/20/4 10/22/4
f 31/23/5 20/24/5 30/25/5 33/26/5
f 18/27/1 22/28/1 26/29/1 23/30/1
f 19/31/1 20/24/1 21/32/1 12/33/1
f 56/34/6 12/33/6 21/32/6 65/35/6
f 18/27/1 17/36/1 4/37/1 22/28/1
f 4/37/3 48/38/3 66/39/3 22/28/3
f 40/40/1 18/27/1 23/30/1 41/41/1
f 68/42/5 69/43/5 25/44/5 24/45/5
f 21/32/1 20/24/1 24/45/1 25/44/1
f 13/46/1 33/26/1 30/25/1 29/47/1
f 17/36/3 18/27/3 27/48/3 28/49/3
f 20/24/6 19/31/6 29/47/6 30/25/6
f 16/50/1 36/51/1 33/26/1 13/46/1
f 20/24/1 31/23/1 32/52/1 24/45/1
f 34/53/5 31/23/5 33/26/5 36/51/5
f 37/54/5 34/53/5 36/51/5 39/55/5
f 8/56/1 39/55/1 36/51/1 16/50/1
f 31/23/1 34/53/1 35/57/1 32/52/1
f 5/58/1 42/59/1 39/55/1 8/56/1
f 40/40/5 37/54/5 39/55/5 42/59/5
f 34/53/1 37/54/1 38/60/1 35/57/1
f 18/27/5 40/40/5 42/59/5 27/48/5
f 28/49/1 27/48/1 42/59/1 5/58/1
f 37/54/1 40/40/1 41/41/1 38/60/1
f 10/22/1 19/11/1 43/14/1 9/21/1
f 13/46/7 29/47/7 19/31/7 10/22/7
f 2/10/1 1/9/1 44/2/1 17/1/1
f 2/10/7 17/1/7 28/49/7 5/58/7
f 79/61/5 35/62/5 38/63/5 82/64/5
f 76/65/5 32/66/5 35/62/5 79/61/5
f 68/42/5 24/45/5 32/66/5 76/65/5
f 25/44/6 69/43/6 65/35/6 21/32/6
f 85/67/5 41/68/5 23/69/5 67/70/5
f 26/71/5 70/72/5 67/70/5 23/69/5
f 66/39/3 70/73/3 26/29/3 22/28/3
f 12/12/8 56/74/8 55/75/8 11/13/8
f 61/76/9 48/16/9 47/15/9 88/77/9
f 50/78/9 51/79/9 52/80/9 49/81/9
f 45/82/2 50/78/2 49/81/2 46/83/2
f 63/84/9 87/85/9 55/75/9 56/74/9
f 58/86/9 57/87/9 60/88/9 59/89/9
f 53/90/4 54/91/4 57/87/4 58/86/4
f 8/7/7 16/50/7 60/92/7 52/80/7
f 75/93/5 77/94/5 74/95/5 64/96/5
f 62/97/9 67/98/9 70/73/9 66/39/9
f 63/99/9 56/34/9 65/35/9 64/96/9
f 62/97/9 66/39/9 48/38/9 61/100/9
f 84/101/9 85/102/9 67/98/9 62/97/9
f 65/35/9 69/43/9 68/42/9 64/96/9
f 57/103/9 73/104/9 74/95/9 77/94/9
f 61/100/3 72/105/3 71/106/3 62/97/3
f 64/96/6 74/95/6 73/104/6 63/99/6
f 60/92/9 57/103/9 77/94/9 80/107/9
f 64/96/9 68/42/9 76/108/9 75/93/9
f 78/109/5 80/107/5 77/94/5 75/93/5
f 81/110/5 83/111/5 80/107/5 78/109/5
f 52/112/9 60/92/9 80/107/9 83/111/9
f 75/93/9 76/108/9 79/113/9 78/109/9
f 49/114/9 52/112/9 83/111/9 86/115/9
f 84/101/5 86/115/5 83/111/5 81/110/5
f 78/109/9 79/113/9 82/116/9 81/110/9
f 62/97/5 71/106/5 86/115/5 84/101/5
f 72/105/9 49/114/9 86/115/9 71/106/9
f 81/110/9 82/116/9 85/102/9 84/101/9
f 54/91/9 53/90/9 87/85/9 63/84/9
f 57/103/7 54/91/7 63/99/7 73/104/7
f 46/83/9 61/76/9 88/77/9 45/82/9
f 46/83/7 49/114/7 72/105/7 61/76/7
f 7/8/10 8/7/10 52/80/10 51/79/10
f 82/64/5 38/63/5 41/68/5 85/67/5
f 15/18/11 59/89/11 60/88/11 16/50/11
