# Blender v3.1.2 OBJ File: ''
# www.blender.org
mtllib door_1.mtl
o Cube.010_Cube.022
v -2.608639 -0.500000 -1.690223
v -1.540812 4.500001 -1.690223
v -1.540812 4.500000 -2.304189
v -2.608639 -0.500000 -2.304189
v -1.977631 -0.500000 -2.304189
v -0.845823 4.500000 -2.304189
v -2.281987 4.500000 -1.690223
v -2.281986 5.156950 -1.690223
v -2.281986 5.156950 -2.304189
v -2.281987 4.500000 -2.304189
v -0.845824 5.156950 -1.690223
v -0.845824 5.156950 -2.304189
v -1.228741 5.156949 -1.690223
v -1.228741 5.156949 -2.304189
v -2.608639 -0.500000 -1.138471
v -1.540812 4.500001 -1.138471
v -1.540812 4.500000 -0.541127
v -2.608639 -0.500000 -0.541127
v -1.977631 -0.500000 -0.541127
v -0.845823 4.500000 -0.541127
v -2.125942 4.500276 -1.095452
v -2.462010 5.156950 -1.138472
v -2.462010 5.156950 -0.541127
v -2.125942 4.500276 -0.584146
v -0.845824 5.156950 -1.138471
v -0.845824 5.156950 -0.541127
v -1.228741 5.156949 -1.138471
v -1.228741 5.156949 -0.541127
v 2.379013 -0.500000 -1.690223
v 1.283711 4.503830 -1.690223
v 1.283711 4.503829 -2.304189
v 2.379013 -0.500000 -2.304189
v 1.748012 -0.500000 -2.304189
v 0.588732 4.503829 -2.304189
v 2.024328 4.503829 -1.690223
v 2.021887 5.156949 -1.690223
v 2.021887 5.156949 -2.304189
v 2.024328 4.503829 -2.304189
v 0.585225 5.156949 -1.690223
v 0.585225 5.156949 -2.304189
v 0.968137 5.156949 -1.690223
v 0.968137 5.156949 -2.304189
v 2.379013 -0.500000 -1.138471
v 1.283711 4.503830 -1.138471
v 1.283711 4.503829 -0.541127
v 2.379013 -0.500000 -0.541127
v 1.748012 -0.500000 -0.541127
v 0.588732 4.503829 -0.541127
v 1.868385 4.503553 -1.095452
v 2.201808 5.156949 -1.138472
v 2.201808 5.156949 -0.541127
v 1.868385 4.503553 -0.584146
v 0.585225 5.156949 -1.138472
v 0.585225 5.156949 -0.541127
v 0.968137 5.156949 -1.138472
v 0.968137 5.156949 -0.541127
vt 0.465443 0.000000
vt 0.365794 0.466595
vt 0.300939 0.466595
vt 0.406558 0.000000
vt 0.107232 0.989615
vt 0.107232 0.527946
vt 0.164527 0.527902
vt 0.164527 0.989570
vt 0.398846 0.799703
vt 0.460090 0.799711
vt 0.460090 0.857006
vt 0.398846 0.856997
vt 0.336672 0.527901
vt 0.300939 0.527901
vt 0.221822 0.642989
vt 0.221822 0.678722
vt 0.164527 0.678722
vt 0.164527 0.642989
vt 0.221822 0.544701
vt 0.164527 0.544701
vt 0.434960 0.466596
vt 0.434960 0.527901
vt 0.398220 0.749724
vt 0.329054 0.749724
vt 0.329054 0.692429
vt 0.398220 0.692429
vt 0.465443 0.000000
vt 0.524328 0.000000
vt 0.629947 0.466575
vt 0.565092 0.466575
vt 0.055743 0.989655
vt 0.000000 0.989698
vt 0.000000 0.528029
vt 0.055743 0.527986
vt 0.398220 0.744243
vt 0.398220 0.696529
vt 0.460842 0.692429
vt 0.460842 0.748172
vt 0.629947 0.527878
vt 0.594214 0.527878
vt 0.273310 0.642989
vt 0.329054 0.642989
vt 0.329054 0.678722
vt 0.273310 0.678722
vt 0.273310 0.527901
vt 0.329054 0.527901
vt 0.510488 0.466562
vt 0.479126 0.527878
vt 0.398220 0.801213
vt 0.398220 0.856956
vt 0.343616 0.852942
vt 0.343616 0.805227
vt 0.794496 0.527878
vt 0.794496 0.998394
vt 0.629970 0.998484
vt 0.629970 0.527968
vt 0.763819 0.466932
vt 0.763492 0.527878
vt 0.273310 0.812267
vt 0.329054 0.812267
vt 0.462925 0.527901
vt 0.462925 0.692429
vt 0.329054 0.692429
vt 0.329054 0.527901
vt 0.167067 0.466953
vt 0.167395 0.527901
vt 0.221822 0.812267
vt 0.164527 0.812267
vt 0.000000 0.000000
vt 0.058884 0.000000
vt 0.102213 0.466953
vt 0.901729 0.527962
vt 0.959023 0.528007
vt 0.959023 0.990402
vt 0.901729 0.990357
vt 0.931506 0.221830
vt 0.931506 0.164536
vt 0.992394 0.164527
vt 0.992394 0.221822
vt 0.131662 0.527901
vt 0.221822 0.848000
vt 0.164527 0.848000
vt 0.221822 0.946335
vt 0.164527 0.946335
vt 0.033099 0.466953
vt 0.033327 0.527901
vt 1.000000 0.107233
vt 1.000000 0.164527
vt 0.930886 0.164527
vt 0.930886 0.107233
vt 0.930886 0.000000
vt 0.828674 0.466932
vt 0.872002 0.000000
vt 0.850240 0.527922
vt 0.850240 0.990316
vt 0.794496 0.990272
vt 0.794496 0.527878
vt 0.930886 0.277290
vt 0.993079 0.273361
vt 0.993079 0.329104
vt 0.930886 0.325004
vt 0.799225 0.527878
vt 0.273310 0.848000
vt 0.329054 0.848000
vt 0.273310 0.963125
vt 0.329054 0.963125
vt 0.883235 0.466868
vt 0.914350 0.527878
vt 1.000000 0.055744
vt 0.945439 0.051729
vt 0.945439 0.004015
vt 1.000000 0.000000
vt 0.629970 0.999295
vt 0.465443 0.999204
vt 0.465443 0.527878
vt 0.629970 0.527968
vn 0.0000 0.0000 -1.0000
vn -0.9779 0.2089 -0.0000
vn -1.0000 0.0000 0.0000
vn -0.0000 1.0000 0.0000
vn 0.0000 -1.0000 0.0000
vn -0.0000 -0.0000 1.0000
vn -0.8902 -0.4556 0.0000
vn -0.0236 -0.0332 0.9992
vn -0.0005 -1.0000 0.0000
vn 0.9753 -0.2208 0.0000
vn -0.9684 -0.2484 -0.0202
vn -0.0002 -1.0000 0.0003
vn 0.0027 -1.0000 0.0000
vn 0.9769 0.2138 -0.0000
vn 1.0000 0.0037 0.0000
vn 0.8907 -0.4545 0.0000
vn 0.0236 -0.0332 0.9992
vn -0.9742 -0.2257 0.0000
vn 0.9690 -0.2462 -0.0203
vn -0.0002 -1.0000 -0.0003
usemtl TT_checker_512x512_UV_GRID
s off
f 4/1/1 3/2/1 6/3/1 5/4/1
f 1/5/2 2/6/2 3/7/2 4/8/2
f 7/9/3 8/10/3 9/11/3 10/12/3
f 3/2/1 14/13/1 12/14/1 6/3/1
f 13/15/4 11/16/4 12/17/4 14/18/4
f 8/19/4 13/15/4 14/18/4 9/20/4
f 10/21/1 9/22/1 14/13/1 3/2/1
f 2/23/5 7/24/5 10/25/5 3/26/5
f 18/27/6 19/28/6 20/29/6 17/30/6
f 15/31/2 18/32/2 17/33/2 16/34/2
f 21/35/7 24/36/7 23/37/7 22/38/7
f 17/30/6 20/29/6 26/39/6 28/40/6
f 27/41/4 28/42/4 26/43/4 25/44/4
f 22/45/4 23/46/4 28/42/4 27/41/4
f 24/47/8 17/30/8 28/40/8 23/48/8
f 16/49/9 17/50/9 24/51/9 21/52/9
f 5/53/10 6/54/10 20/55/10 19/56/10
f 48/57/6 54/58/6 26/39/6 20/29/6
f 11/16/4 13/15/4 27/41/4 25/44/4
f 13/15/4 8/19/4 22/45/4 27/41/4
f 7/9/11 21/35/11 22/38/11 8/10/11
f 2/23/12 16/49/12 21/52/12 7/24/12
f 1/5/2 15/31/2 16/34/2 2/6/2
f 53/59/4 25/44/4 26/43/4 54/60/4
f 34/61/13 48/62/13 20/63/13 6/64/13
f 34/65/1 6/3/1 12/14/1 40/66/1
f 39/67/4 40/68/4 12/17/4 11/16/4
f 32/69/1 33/70/1 34/65/1 31/71/1
f 29/72/14 32/73/14 31/74/14 30/75/14
f 35/76/15 38/77/15 37/78/15 36/79/15
f 31/71/1 34/65/1 40/66/1 42/80/1
f 41/81/4 42/82/4 40/68/4 39/67/4
f 36/83/4 37/84/4 42/82/4 41/81/4
f 38/85/1 31/71/1 42/80/1 37/86/1
f 30/87/5 31/88/5 38/89/5 35/90/5
f 46/91/6 45/92/6 48/57/6 47/93/6
f 43/94/14 44/95/14 45/96/14 46/97/14
f 49/98/16 50/99/16 51/100/16 52/101/16
f 45/92/6 56/102/6 54/58/6 48/57/6
f 55/103/4 53/59/4 54/60/4 56/104/4
f 50/105/4 55/103/4 56/104/4 51/106/4
f 52/107/17 51/108/17 56/102/17 45/92/17
f 44/109/9 49/110/9 52/111/9 45/112/9
f 33/113/18 47/114/18 48/115/18 34/116/18
f 39/67/4 53/59/4 55/103/4 41/81/4
f 41/81/4 55/103/4 50/105/4 36/83/4
f 35/76/19 36/79/19 50/99/19 49/98/19
f 30/87/20 35/90/20 49/110/20 44/109/20
f 29/72/14 30/75/14 44/95/14 43/94/14
f 25/44/4 53/59/4 39/67/4 11/16/4
